<svg width="22" height="21" viewBox="0 0 22 21" fill="none" xmlns="http://www.w3.org/2000/svg">
<path d="M20.8881 14.7855V17.5574C20.8892 17.8147 20.8322 18.0694 20.7206 18.3051C20.609 18.5409 20.4454 18.7526 20.2402 18.9266C20.0349 19.1005 19.7927 19.2329 19.5288 19.3154C19.265 19.3978 18.9855 19.4285 18.7081 19.4053C15.6309 19.0963 12.6751 18.1248 10.0781 16.5687C7.66195 15.1502 5.61346 13.2575 4.07812 11.025C2.3881 8.61458 1.33637 5.87024 1.00812 3.01431C0.983126 2.7588 1.016 2.50129 1.10462 2.25816C1.19325 2.01504 1.33569 1.79163 1.52289 1.60216C1.71009 1.41268 1.93793 1.2613 2.19192 1.15764C2.4459 1.05398 2.72046 1.00033 2.99812 1.00009H5.99812C6.48343 0.995673 6.95392 1.15446 7.32189 1.44685C7.68986 1.73923 7.9302 2.14528 7.99812 2.58929C8.12475 3.47634 8.35957 4.34732 8.69812 5.1856C8.83267 5.5163 8.86179 5.87571 8.78203 6.22125C8.70228 6.56677 8.51699 6.88393 8.24812 7.13515L6.97812 8.30857C8.40168 10.6217 10.4745 12.537 12.9781 13.8523L14.2481 12.6789C14.52 12.4304 14.8632 12.2592 15.2372 12.1856C15.6112 12.1118 16.0002 12.1388 16.3581 12.2631C17.2654 12.5759 18.208 12.7929 19.1681 12.9099C19.6539 12.9732 20.0975 13.1992 20.4146 13.5451C20.7318 13.8909 20.9003 14.3324 20.8881 14.7855Z" stroke="#00B5B3" stroke-width="2" stroke-linecap="round" stroke-linejoin="round"/>
</svg>
