<svg width="70" height="87" viewBox="0 0 70 87" fill="none" xmlns="http://www.w3.org/2000/svg">
<path d="M41.6079 0C43.1068 0.46728 44.4714 1.19378 45.1113 2.80538C45.4759 3.67943 45.6779 4.62057 45.7064 5.57667C45.7543 12.7121 45.7351 19.8492 45.7287 26.9846C45.7357 27.295 45.6969 27.6046 45.6136 27.902C45.4216 28.5211 44.9417 28.8912 44.3882 28.6832C43.9867 28.5331 43.646 28.0692 43.3916 27.66C43.254 27.4416 43.342 27.0544 43.342 26.7424C43.342 19.7776 43.342 12.8116 43.342 5.84441C43.342 3.49948 42.4462 2.54446 40.2498 2.54446H5.41335C3.31455 2.5581 2.39953 3.52336 2.39953 5.74208V81.2641C2.39953 83.4367 3.33535 84.443 5.36056 84.443C10.0626 84.443 14.7646 84.443 19.4667 84.443C19.7578 84.443 20.1353 84.3542 20.3225 84.5112C20.6824 84.8113 21.1543 85.2462 21.1735 85.6469C21.1927 86.0477 20.7736 86.544 20.4344 86.8646C20.2425 87.0454 19.8265 86.9857 19.5115 86.9857C14.8083 86.9925 10.1058 86.9925 5.40375 86.9857C2.00601 86.9891 0 84.8488 0 81.23V6.30999C0 2.60927 0.894224 1.25006 4.1448 0H41.6079Z" fill="#00B5B3"/>
<path d="M45.7942 82.071C45.5863 82.7787 45.4743 83.4626 45.1944 84.0561C44.2697 86.0037 42.7212 86.974 40.6929 86.9843C35.7786 87.0098 30.8628 86.9979 25.9485 86.9843C25.0191 86.9843 24.4656 86.4846 24.4688 85.7035C24.4719 84.9225 25.0111 84.4432 25.9565 84.4432C30.818 84.4432 35.6794 84.4432 40.5409 84.4432C42.0542 84.4432 43.0604 83.5905 43.2892 82.1768C43.3563 81.7572 43.302 81.5338 42.8668 81.3547C38.6852 79.6357 34.5212 77.8672 30.3396 76.1516C28.8152 75.5256 27.513 74.7173 27.0715 72.8789C27.0363 72.7305 26.7868 72.5958 26.6124 72.5378C26.4006 72.5029 26.1855 72.4977 25.9725 72.5224C19.9161 72.5224 13.8597 72.5224 7.80321 72.5224C5.74601 72.5224 4.80859 71.5402 4.80859 69.3743C4.80859 50.5728 4.80859 31.7719 4.80859 12.9716C4.80859 11.1365 5.55404 10.3486 7.27851 10.3486H38.4453C40.1697 10.3486 40.8896 11.1195 40.8896 12.9886C40.8896 24.483 40.8896 35.9786 40.8896 47.4753V48.5138C41.667 48.1455 42.3773 47.8607 43.03 47.4649C43.2187 47.3508 43.3195 46.9176 43.3211 46.631C43.3387 42.4682 43.3323 38.3053 43.3339 34.1441C43.3339 32.7712 43.7242 32.142 44.5529 32.1709C45.3528 32.2 45.7239 32.8276 45.7255 34.1356V44.3884C45.8401 44.3611 45.9521 44.3223 46.0598 44.2725C47.9795 43.065 49.7759 43.2612 51.35 44.9291C55.2133 49.022 59.0509 53.1388 62.911 57.2335C64.4354 58.8519 65.2833 60.7655 65.2273 63.0745C65.1761 65.092 65.744 66.7753 67.2557 68.0833C67.9056 68.6689 68.4998 69.3211 69.0298 70.0308C70.4103 71.8011 70.3096 73.8015 68.7787 75.4336C65.6859 78.742 62.5879 82.0459 59.4844 85.3454C59.1848 85.6683 58.8641 85.968 58.5246 86.2424C57.3265 87.1906 56.0483 87.2503 54.8085 86.413C54.1015 85.932 53.4935 85.2806 52.8569 84.6854C52.5177 84.3699 52.217 84.0032 51.8971 83.6707C50.8285 82.5655 49.6351 81.8391 48.0579 82.0523C47.3251 82.1528 46.5733 82.071 45.7942 82.071ZM35.2523 53.7204C36.0921 52.9479 36.796 52.0798 37.6823 51.5613C38.2933 51.205 38.514 50.9321 38.5125 50.209C38.4922 40.072 38.4874 29.9358 38.498 19.8V18.7768H7.27211V69.9047C7.31899 69.9266 7.36773 69.9437 7.41769 69.9558C13.8975 69.966 20.3778 69.9723 26.8587 69.9746C26.9585 69.9754 27.0574 69.9532 27.1485 69.9097C27.2395 69.8661 27.3208 69.8021 27.3867 69.7222C28.5784 67.466 30.4661 67.1982 32.6144 67.5597C34.0942 67.8087 35.5866 67.9826 37.2967 68.2197C36.9304 67.8002 36.7272 67.5546 36.5113 67.3226C31.1587 61.6164 25.8061 55.9101 20.4536 50.2039C20.1713 49.9061 19.9043 49.5925 19.6538 49.2642C19.0973 48.5151 18.7917 47.5895 18.7853 46.6341C18.7789 45.6787 19.0722 44.7485 19.6185 43.991C21.175 41.8338 23.9473 41.7144 25.8909 43.7659C28.8743 46.9141 31.829 50.0896 34.7964 53.2531C34.9964 53.4663 35.2091 53.6743 35.2523 53.7204ZM31.717 70.0035C30.0213 69.9866 29.2199 70.7472 29.3398 71.9529C29.431 72.8738 30.0357 73.2847 30.7668 73.59C34.2749 75.0481 37.8054 76.4551 41.2768 78.0053C43.7227 79.0985 46.2054 79.7277 48.8625 79.5232C49.4746 79.4736 50.0898 79.5547 50.6721 79.7617C51.2544 79.9687 51.7922 80.2976 52.2538 80.7289C53.3864 81.7521 54.455 82.8555 55.5764 83.894C56.3634 84.624 56.733 84.6053 57.496 83.8531C57.9663 83.3944 58.4062 82.8998 58.8557 82.419C61.5624 79.5368 64.2675 76.6529 66.971 73.7674C67.7708 72.9147 67.7916 72.4151 67.0622 71.506C66.7254 71.0654 66.3504 70.6594 65.9423 70.2935C63.7284 68.4175 62.6806 66.0044 62.8181 62.9603C62.8869 61.4527 62.2615 60.1652 61.2553 59.0941C57.4022 54.992 53.5501 50.8883 49.6991 46.7829C48.8448 45.8773 47.8738 45.8363 47.1604 46.6123C46.447 47.3883 46.5349 48.4046 47.3684 49.3204C48.1682 50.1953 48.9825 51.0447 49.7871 51.9076C50.2558 52.4107 50.7389 52.8984 51.1708 53.4339C51.6027 53.9694 51.5883 54.6038 51.1148 55.1154C50.6413 55.627 50.0734 55.627 49.5295 55.1973C49.3435 55.0402 49.1681 54.8693 49.0049 54.6857C47.7443 53.3453 46.4949 51.9946 45.2248 50.6644C44.5033 49.9105 43.7642 49.7741 43.0652 50.2073C42.0413 50.84 41.9454 52.1429 42.8716 53.1593C44.2074 54.6174 45.5815 56.0397 46.9204 57.4945C47.5347 58.1612 47.57 58.9202 47.0724 59.4522C46.5749 59.9843 45.8743 59.9536 45.2376 59.3005C44.3386 58.3761 43.4683 57.4246 42.5837 56.4815C41.8686 55.7225 41.1648 54.9466 40.4289 54.2149C39.9266 53.7136 39.2627 53.4612 38.6772 53.8739C38.2373 54.1843 37.7398 54.7624 37.6999 55.2621C37.6551 55.8113 37.983 56.5241 38.3573 56.9675C39.7026 58.5313 41.136 60.0099 42.5357 61.5209C43.4491 62.5083 43.5787 63.2264 42.958 63.8369C42.3374 64.4474 41.7375 64.282 40.8384 63.3252C35.3984 57.5086 29.9541 51.6978 24.5055 45.8926C24.2506 45.605 23.968 45.3466 23.6626 45.1218C23.3457 44.9063 22.9679 44.8164 22.5952 44.8682C22.2226 44.92 21.879 45.11 21.6245 45.4049C21.3766 45.6852 21.2235 46.0458 21.1893 46.4294C21.1551 46.813 21.2418 47.1978 21.4358 47.523C21.6504 47.846 21.8948 48.1453 22.1653 48.4166C28.1001 54.747 34.0365 61.0752 39.9746 67.4012C40.8192 68.3016 41.0064 69.1304 40.5905 69.9814C40.1745 70.8324 39.4051 71.1155 38.2501 70.945C35.9642 70.6038 33.675 70.2832 31.717 70.0019V70.0035ZM12.983 12.9443V16.0788H38.4485V12.9443H12.983ZM10.5051 12.9613H7.25612V16.0839H10.5051V12.9613Z" fill="#00B5B3"/>
<path d="M22.8897 82.3877C22.1213 82.3962 21.3678 82.161 20.7249 81.7123C20.082 81.2636 19.5785 80.6214 19.2785 79.8672C18.9784 79.113 18.8951 78.2807 19.0394 77.4761C19.1836 76.6715 19.5488 75.9305 20.0886 75.3474C20.6283 74.7643 21.3184 74.3652 22.0712 74.2008C22.8241 74.0365 23.6057 74.1141 24.3171 74.4239C25.0285 74.7339 25.6375 75.2621 26.0668 75.9414C26.4963 76.6208 26.7267 77.4209 26.7289 78.2402C26.7209 79.3281 26.3153 80.3698 25.5985 81.1442C24.8817 81.9185 23.91 82.3646 22.8897 82.3877ZM22.8785 79.8296C23.1706 79.8252 23.4548 79.7285 23.6953 79.5518C23.9359 79.3751 24.1218 79.1264 24.2297 78.837C24.3376 78.5476 24.3625 78.2306 24.3013 77.9262C24.2402 77.6217 24.0957 77.3433 23.8862 77.1265C23.6767 76.9095 23.4115 76.7637 23.1242 76.7075C22.8369 76.6512 22.5405 76.6871 22.2723 76.8104C22.0041 76.9339 21.7763 77.1393 21.6177 77.4008C21.4591 77.6623 21.3768 77.968 21.3812 78.2793C21.4001 78.6913 21.5648 79.0803 21.8421 79.368C22.1193 79.6557 22.4885 79.8205 22.8753 79.8296H22.8785Z" fill="#00B5B3"/>
<path d="M22.9554 5.07535C24.1759 5.07535 25.3965 5.06512 26.6171 5.07535C27.5145 5.08387 28.0296 5.5324 28.0568 6.28959C28.084 7.0809 27.5497 7.60787 26.6171 7.6147C24.096 7.63175 21.5748 7.63175 19.0538 7.6147C18.1643 7.6147 17.6652 7.10307 17.6636 6.33905C17.662 5.57503 18.1627 5.089 19.049 5.07876C20.3543 5.06341 21.6548 5.07535 22.9554 5.07535Z" fill="#00B5B3"/>
<path d="M22.9635 20.9765C28.0249 21.1163 31.8594 25.4105 31.7346 30.7843C31.613 35.9909 27.5146 40.0531 22.514 39.9252C17.7565 39.8025 13.8564 35.4093 13.9733 30.305C14.0932 25.0507 18.1436 20.8486 22.9635 20.9765ZM16.368 30.4602C16.3635 32.2953 17.043 34.0569 18.257 35.3579C19.4709 36.6587 21.1199 37.3922 22.8411 37.3969C24.5623 37.4017 26.2149 36.6773 27.4351 35.3831C28.6554 34.089 29.3434 32.331 29.3479 30.496C29.3703 26.6759 26.3964 23.5039 22.834 23.5312C21.1172 23.5478 19.4758 24.285 18.2655 25.5829C17.0551 26.8809 16.3734 28.6352 16.368 30.4653V30.4602Z" fill="#00B5B3"/>
<path d="M21.9829 30.8879C23.0819 29.6942 24.0289 28.6317 25.0304 27.6256C25.3151 27.3407 25.7726 27.0679 26.1261 27.0986C26.4796 27.1293 26.9548 27.4857 27.0731 27.8216C27.2043 28.1901 27.1403 28.845 26.9004 29.1212C25.587 30.6322 24.2113 32.0834 22.8196 33.516C22.3124 34.0361 21.6838 34.0037 21.1703 33.4938C20.3705 32.7059 19.6058 31.8856 18.8635 31.0415C18.3388 30.4428 18.3644 29.7351 18.8491 29.2253C19.3339 28.7153 19.9993 28.7273 20.5544 29.2832C21.0328 29.7624 21.4614 30.298 21.9829 30.8879Z" fill="#00B5B3"/>
</svg>
