<svg width="71" height="70" viewBox="0 0 71 70" fill="none" xmlns="http://www.w3.org/2000/svg">
<path d="M70.6797 53.5946V54.9625C70.2496 56.4558 69.3958 57.5913 67.8715 58.1494C68.4269 59.3223 68.5174 60.4499 68.0497 61.5893C67.5822 62.7286 66.7063 63.4908 65.549 63.943C65.6109 64.1147 65.6484 64.2194 65.6871 64.324C66.5669 66.6763 65.4288 69.0351 63.0365 69.8218C62.8932 69.8682 62.7562 69.9393 62.6167 69.9988H43.8864C43.1036 69.5996 42.304 69.2236 41.5393 68.7935C40.4323 68.1657 39.364 67.472 38.2517 66.8559C37.8812 66.6443 37.4652 66.5247 37.0388 66.5071C33.5136 66.48 29.9885 66.4968 26.4633 66.4851C26.2984 66.4704 26.1328 66.5046 25.9872 66.5834C25.8415 66.6622 25.7223 66.7821 25.6444 66.9282C24.6872 68.4176 23.2869 69.0273 21.5521 68.7509C20.967 68.6579 20.4154 68.3633 19.8406 68.1554C18.8717 69.3012 18.7606 69.3774 17.0994 70H15.7379C14.2473 69.5685 13.1002 68.7224 12.568 67.2137C10.3591 68.1825 7.94873 67.5921 6.73708 64.9066C6.64913 64.9145 6.56243 64.9327 6.47873 64.9608C3.70277 66.2681 0.645206 63.9881 0.683958 60.9021C0.753713 55.3217 0.709793 49.7399 0.698168 44.1582C0.680598 43.3134 0.904677 42.4811 1.34404 41.7594C2.17722 40.4004 3.01556 39.0466 3.78932 37.6529C4.03875 37.2015 4.17609 36.6969 4.18975 36.1815C4.22463 32.7635 4.1988 29.3468 4.21947 25.93C4.21947 25.4469 4.09029 25.1653 3.67305 24.885C2.35935 23.9988 1.72252 22.7252 1.92661 21.1388C2.01316 20.4619 2.31414 19.8135 2.52341 19.1185C1.23166 18.1859 0.523782 16.8876 0.739503 15.2199C0.955225 13.5523 1.96796 12.4801 3.50254 11.842C2.9626 10.6871 2.8683 9.55942 3.33203 8.41749C3.54179 7.89712 3.85649 7.42554 4.25654 7.03216C4.65657 6.63878 5.13337 6.33204 5.65718 6.13106C5.56805 5.18677 5.33424 4.34066 5.44404 3.54752C5.7321 1.42127 7.47466 0.014526 9.64481 0.0106507C15.2704 0.00031652 20.8959 0.014526 26.5189 0.000316521C27.3855 -0.00990486 28.237 0.227624 28.9732 0.684955C30.3502 1.52848 31.735 2.36426 33.1378 3.16257C33.4874 3.36796 33.8822 3.48419 34.2874 3.50101C37.8397 3.52684 41.392 3.50877 44.9456 3.52556C45.3486 3.52556 45.5398 3.36409 45.7465 3.0489C46.6507 1.66799 47.9541 1.02469 49.5933 1.24042C50.2482 1.32438 50.8773 1.61761 51.5412 1.8243C53.3872 -0.799289 57.3373 -0.685613 58.8913 2.78924C59.9828 2.26091 61.1105 2.17566 62.2498 2.62907C63.4124 3.09281 64.1577 3.9738 64.6124 5.10539C64.6996 5.09513 64.7859 5.07874 64.8708 5.0563C67.5331 4.09264 69.6993 5.18548 70.5686 7.91499C70.5985 7.97317 70.6374 8.02633 70.6836 8.07259V26.8033C70.2844 27.5873 69.9086 28.387 69.4784 29.1517C68.8752 30.2187 68.1867 31.2405 67.6131 32.3217C67.3571 32.7937 67.2138 33.3185 67.1947 33.855C67.1584 37.2653 67.1856 40.6756 67.1649 44.0858C67.1649 44.5676 67.294 44.848 67.7075 45.1283C69.0199 46.0119 69.6593 47.2803 69.4565 48.8654C69.3699 49.5423 69.069 50.1907 68.8545 50.9141C69.8324 51.4864 70.3375 52.4849 70.6797 53.5946ZM44.9908 5.85203H44.1899C40.9335 5.85203 37.6757 5.85203 34.4192 5.85203C33.5275 5.8666 32.6504 5.62446 31.8925 5.15447C30.5775 4.34066 29.2587 3.52684 27.9049 2.77763C27.4363 2.51584 26.912 2.3697 26.3755 2.35133C22.9368 2.31517 19.497 2.33196 16.057 2.33196H10.1137C9.93153 2.33196 9.74945 2.33196 9.56729 2.33196C8.53389 2.37717 7.72655 3.12769 7.69684 4.05518C7.66714 5.03822 8.44734 5.82103 9.55434 5.8417C11.2336 5.8727 12.9245 5.8417 14.6102 5.85849C15.3685 5.86624 15.8672 6.34807 15.8632 7.01204C15.8632 7.63985 15.3762 8.1178 14.6697 8.17463C14.4656 8.19272 14.2602 8.18239 14.0548 8.18239C11.7542 8.18239 9.45363 8.17334 7.15431 8.1953C6.72754 8.19619 6.31495 8.34862 5.99012 8.62543C5.66528 8.90222 5.44932 9.28547 5.38074 9.70668C5.33133 10.0942 5.41566 10.4869 5.61978 10.82C5.82389 11.1531 6.13557 11.4065 6.50327 11.5384C6.8084 11.6256 7.12516 11.6652 7.44237 11.656C9.01442 11.6676 10.5865 11.656 12.1572 11.6663C13.0085 11.6741 13.5458 12.1598 13.533 12.8586C13.52 13.5575 13.0162 13.9708 12.1843 13.9953C12.0023 13.9953 11.8201 13.9953 11.6379 13.9953C9.49624 13.9953 7.35582 13.9876 5.21411 14.0031C4.82865 13.9957 4.44486 14.0557 4.07996 14.1801C3.72981 14.3255 3.43871 14.5844 3.2534 14.9153C3.0681 15.246 2.99934 15.6295 3.05818 16.0041C3.13884 16.4227 3.36261 16.8003 3.69116 17.072C4.01969 17.3438 4.43253 17.4928 4.85888 17.4935C6.86366 17.5168 8.86329 17.5025 10.8719 17.5038C11.3279 17.5038 11.784 17.4948 12.2386 17.5038C13.0137 17.5231 13.5549 18.0205 13.5304 18.7C13.5059 19.3794 12.9956 19.8225 12.2386 19.8264C10.1886 19.8368 8.13862 19.8264 6.08862 19.8341C5.00226 19.8419 4.25176 20.5356 4.22334 21.5135C4.19492 22.4913 4.9183 23.2302 5.98011 23.3335C6.20748 23.3503 6.43555 23.3555 6.66345 23.349H18.1432C18.5526 23.349 18.9634 23.3335 19.3716 23.3581C20.3908 23.4214 20.8507 24.3799 20.2759 25.2234C20.1338 25.4301 19.9671 25.6187 19.8083 25.8124C18.9157 26.9066 18.014 27.9943 17.1292 29.0935C16.699 29.6258 16.637 30.2213 17 30.809C17.3475 31.3761 17.9042 31.6074 18.5307 31.4239C18.8989 31.3141 19.2489 31.0363 19.5318 30.7612C23.1487 27.1947 26.7656 23.6294 30.3502 20.0292C31.2802 19.094 32.3188 18.6198 33.6364 18.6677C34.746 18.709 35.8595 18.6767 37.0065 18.6767C36.9639 18.3163 36.92 18.0308 36.8993 17.7389C36.8537 17.2615 36.9062 16.7798 37.0537 16.3235C37.2012 15.8672 37.4406 15.4459 37.757 15.0856C39.1147 13.5148 41.4178 13.3184 43.1061 14.6374C43.7172 15.1141 44.3087 15.6139 44.9985 16.1745L44.9908 5.85203ZM34.4993 51.3301C34.4592 52.1129 34.538 52.8376 34.3701 53.4964C33.692 56.0876 30.5698 57.0823 28.3829 55.434C27.737 54.9483 27.1247 54.4187 26.4245 53.849V64.1522H27.2099C30.3979 64.1522 33.5873 64.1676 36.7754 64.1431C37.8035 64.1199 38.8154 64.4022 39.6831 64.9543C40.9748 65.7669 42.2807 66.5523 43.6086 67.2989C43.9997 67.5194 44.4388 67.6408 44.8875 67.6529C50.398 67.6761 55.9099 67.6684 61.4218 67.6671C62.7794 67.6671 63.6682 66.9811 63.6901 65.9271C63.7108 64.8265 62.8492 64.1548 61.4102 64.1522C59.8394 64.1522 58.2674 64.1625 56.6966 64.1405C56.0159 64.1315 55.5547 63.6651 55.525 63.0478C55.4953 62.4303 55.9409 61.9303 56.592 61.8386C56.7958 61.8184 57.0008 61.8123 57.2056 61.8205C59.4609 61.8205 61.715 61.8205 63.9704 61.8205C65.1718 61.8205 66.0101 61.092 66.0204 60.0857C66.032 59.0522 65.2299 58.356 64.0014 58.3482C62.4293 58.3405 60.8586 58.3482 59.2865 58.3482C58.3824 58.3418 57.8346 57.8638 57.8553 57.143C57.8759 56.4429 58.3927 56.0218 59.2762 56.0192C61.5303 56.0114 63.7857 56.0192 66.0398 56.0192C66.3355 56.0245 66.6312 56.0037 66.9233 55.9572C67.6441 55.828 68.086 55.3746 68.2823 54.6783C68.3818 54.3701 68.3776 54.0377 68.2703 53.7321C68.163 53.4265 67.9585 53.1644 67.688 52.9861C67.2799 52.7088 66.8017 52.5521 66.3085 52.534C63.964 52.4888 61.6169 52.5159 59.271 52.5107C58.4095 52.5107 57.8682 52.0677 57.8501 51.374C57.8308 50.6545 58.3875 50.1869 59.2853 50.1855C61.2901 50.1855 63.2897 50.1946 65.2984 50.1791C66.3834 50.1714 67.1313 49.4738 67.1571 48.4998C67.183 47.5258 66.4622 46.7856 65.4017 46.6913C65.1756 46.6707 64.9457 46.6785 64.7184 46.6785H52.625C52.4197 46.6785 52.1833 46.7417 52.0166 46.6603C51.6523 46.4833 51.1705 46.3051 51.0219 45.9925C50.8734 45.6798 51.031 45.189 51.1395 44.8014C51.2028 44.5793 51.4354 44.4049 51.5942 44.2111C52.4868 43.117 53.3884 42.0306 54.272 40.9288C54.6983 40.3965 54.7564 39.7985 54.3922 39.2133C54.0395 38.6474 53.4776 38.4279 52.855 38.6061C52.4936 38.7342 52.1685 38.9473 51.9068 39.2275C48.3222 42.7605 44.7286 46.287 41.1854 49.8652C40.152 50.9115 39.0126 51.4438 37.5413 51.3636C36.5067 51.2836 35.4629 51.3301 34.4993 51.3301ZM52.0154 36.2835C52.718 36.2835 53.32 36.1944 53.8857 36.2978C56.6682 36.8144 57.8747 39.947 56.1851 42.2322C55.6813 42.9142 55.1259 43.5588 54.5574 44.2667H64.8372V43.3934C64.8372 40.204 64.8475 37.016 64.8307 33.8266C64.8106 32.8679 65.073 31.9245 65.5851 31.1139C66.395 29.8221 67.1869 28.5174 67.9244 27.1856C68.1768 26.7364 68.3172 26.233 68.3339 25.7181C68.3624 20.2526 68.352 14.7859 68.3507 9.32047C68.3575 9.11537 68.3531 8.9101 68.3379 8.70556C68.2422 7.75997 67.4672 7.00946 66.5888 7.00558C65.6846 7.00558 64.9535 7.70185 64.8527 8.69135C64.8282 8.93932 64.8385 9.19254 64.8372 9.44183C64.8372 10.9688 64.8488 12.4943 64.8229 14.0199C64.8266 14.1688 64.8005 14.317 64.7463 14.4557C64.692 14.5945 64.6108 14.721 64.5071 14.828C64.4035 14.935 64.2796 15.0203 64.1427 15.079C64.0057 15.1376 63.8585 15.1684 63.7095 15.1695C63.4217 15.1729 63.1428 15.0704 62.9256 14.8815C62.7084 14.6927 62.5681 14.4306 62.5314 14.1452C62.5047 13.9194 62.496 13.6917 62.5055 13.4645C62.5055 11.1871 62.512 8.90966 62.5055 6.63226C62.4978 5.49293 61.7396 4.66877 60.7514 4.67393C59.7387 4.67393 59.0463 5.46192 59.0386 6.64389C59.0269 8.12425 59.0386 9.60466 59.0386 11.0863C59.0386 12.2488 58.6574 12.8263 57.8759 12.8392C57.0944 12.8521 56.7018 12.2851 56.7018 11.1173C56.7018 8.93031 56.7018 6.74465 56.6941 4.55768C56.7034 4.17221 56.6497 3.7878 56.5352 3.41963C56.2846 2.70141 55.4475 2.24153 54.7267 2.35651C54.2951 2.43001 53.9039 2.65516 53.6235 2.99144C53.3431 3.32771 53.192 3.75302 53.1972 4.19081C53.1779 6.49146 53.1895 8.79207 53.1882 11.0914C53.1882 12.254 52.8007 12.8327 52.0321 12.8405C51.2635 12.8483 50.8579 12.2721 50.8579 11.1095C50.8579 9.17189 50.8722 7.23422 50.8489 5.29657C50.8372 4.29286 50.1436 3.57206 49.2225 3.52426C48.3016 3.47647 47.5355 4.13398 47.3831 5.10023C47.3475 5.39375 47.3346 5.68958 47.3444 5.98508C47.3444 10.1532 47.3444 14.3213 47.3444 18.4894C47.3444 19.0346 47.1868 19.4724 46.6623 19.7166C46.1637 19.9478 45.7349 19.8057 45.3383 19.4737C45.1639 19.3278 44.9844 19.187 44.8087 19.0423C43.752 18.1781 42.7018 17.3036 41.6349 16.451C41.0717 16.0002 40.3832 15.9602 39.8561 16.3218C39.3007 16.6952 39.0811 17.2454 39.2697 17.8719C39.3756 18.2181 39.6456 18.5424 39.9091 18.8098C43.4898 22.4435 47.068 26.0785 50.681 29.68C51.6162 30.6127 52.0696 31.6616 52.0218 32.9753C51.983 34.0746 52.0154 35.1894 52.0154 36.2835ZM6.5459 25.7156V26.6108C6.5459 29.8234 6.53815 33.036 6.5459 36.2487C6.56247 37.1634 6.31295 38.0631 5.82769 38.8386C5.03197 40.1123 4.23884 41.3899 3.51805 42.7075C3.2321 43.2144 3.07092 43.7821 3.04785 44.3636C3.01298 49.789 3.02718 55.2079 3.02718 60.6308C3.01852 60.8812 3.02543 61.1318 3.04785 61.3814C3.1012 61.7915 3.28878 62.1724 3.58133 62.4648C3.87389 62.7571 4.25496 62.9443 4.66512 62.9974C5.04323 63.0208 5.41863 62.9199 5.73399 62.71C6.04935 62.5 6.28732 62.1926 6.41156 61.8348C6.50191 61.5058 6.54539 61.1657 6.54073 60.8246C6.55365 59.2525 6.54073 57.6805 6.55236 56.1084C6.56011 55.3332 7.02126 54.845 7.6878 54.836C8.35434 54.8269 8.82453 55.3294 8.87491 56.0786C8.88783 56.2595 8.87491 56.4429 8.87491 56.625C8.87491 58.79 8.87491 60.9538 8.87491 63.1188C8.86167 63.4365 8.8912 63.7545 8.96275 64.0643C9.19139 64.8549 10.0272 65.4117 10.7841 65.3252C11.2093 65.2854 11.6042 65.0879 11.8911 64.7716C12.178 64.4553 12.3361 64.0431 12.3342 63.6161C12.3639 62.1358 12.3459 60.6541 12.3484 59.1737C12.3484 58.9451 12.3484 58.7177 12.3484 58.4903C12.3833 57.6843 12.8497 57.165 13.5265 57.1676C14.2034 57.1702 14.6723 57.6843 14.6761 58.4994C14.6877 60.8917 14.6761 63.2789 14.6865 65.6765C14.6942 66.8636 15.3995 67.6542 16.3993 67.6632C17.3991 67.6723 18.1794 66.8158 18.1858 65.652C18.1961 63.8758 18.1858 62.0982 18.1858 60.3208C18.1858 59.7291 18.1858 59.1362 18.1858 58.5434C18.1961 57.7024 18.6702 57.1547 19.3677 57.1663C20.0446 57.1792 20.4993 57.7063 20.5096 58.5123C20.5187 59.1504 20.5096 59.7885 20.5096 60.4254C20.5096 61.8619 20.4916 63.297 20.5187 64.7322C20.5381 65.6997 21.2201 66.4115 22.1062 66.4735C22.9924 66.5355 23.7752 65.9335 23.9561 65.0022C24.008 64.6881 24.0296 64.3697 24.0206 64.0514C24.0258 59.997 24.0258 55.9417 24.0206 51.8855C24.0128 51.6576 24.018 51.4295 24.0361 51.2022C24.0517 51.0082 24.1171 50.8215 24.226 50.6601C24.3347 50.4988 24.4834 50.3682 24.6574 50.2811C24.8314 50.1939 25.025 50.1532 25.2193 50.1627C25.4137 50.1722 25.6024 50.2317 25.767 50.3354C25.9768 50.4716 26.176 50.6236 26.3625 50.7902C27.5097 51.7266 28.6489 52.6722 29.8038 53.5984C30.3437 54.0312 30.9457 54.0531 31.5192 53.6811C31.7791 53.5288 31.9782 53.291 32.0823 53.0083C32.1864 52.7256 32.1892 52.4155 32.0902 52.131C31.9842 51.7835 31.7117 51.4606 31.4443 51.1932C28.2459 47.9482 25.0398 44.7111 21.8259 41.4816C19.2243 38.8709 19.3264 39.1448 19.3432 35.4517C19.3432 34.8743 19.3432 34.2968 19.3432 33.8227C18.519 33.7763 17.7931 33.8498 17.133 33.6781C14.5611 33.0102 13.5381 29.9849 15.127 27.8341C15.6436 27.1326 16.2146 26.4687 16.8191 25.7169L6.5459 25.7156ZM21.7046 34.8871C21.7046 35.6841 21.6464 36.4863 21.7277 37.2757C21.773 37.7135 21.9448 38.2316 22.2445 38.5351C25.5539 41.9238 28.8875 45.2885 32.2451 48.629C32.4704 48.8372 32.7616 48.9597 33.068 48.9752C34.7072 49.0075 36.3478 49.023 37.9857 48.9687C38.4301 48.9495 38.8547 48.7795 39.1896 48.4869C42.592 45.1593 45.9721 41.8088 49.3298 38.4356C49.5343 38.207 49.6527 37.9141 49.6644 37.6076C49.6953 35.9916 49.7173 34.3782 49.6541 32.7583C49.6284 32.2719 49.439 31.8084 49.1167 31.4433C45.8253 28.0683 42.5098 24.7187 39.1702 21.3946C38.9272 21.1738 38.6147 21.0449 38.2866 21.0303C36.7172 20.9942 35.1452 21.0303 33.5744 21.0032C32.9285 20.9903 32.4596 21.2086 32.0088 21.6607C28.8035 24.8643 25.5845 28.0537 22.3517 31.2288C21.8686 31.7029 21.6528 32.1731 21.7058 32.8371C21.7588 33.5011 21.7058 34.2051 21.7058 34.8884L21.7046 34.8871Z" fill="#00B5B3"/>
</svg>
