<svg width="32" height="32" viewBox="0 0 32 32" fill="none" xmlns="http://www.w3.org/2000/svg">
<path d="M23.5 1H8.5C4.35786 1 1 4.35786 1 8.5V23.5C1 27.6421 4.35786 31 8.5 31H23.5C27.6421 31 31 27.6421 31 23.5V8.5C31 4.35786 27.6421 1 23.5 1Z" stroke="white" stroke-width="2" stroke-linecap="round" stroke-linejoin="round"/>
<path d="M23.9135 14.9356C24.1603 16.4457 23.876 17.988 23.101 19.3431C22.326 20.6982 21.0998 21.797 19.5967 22.4834C18.0937 23.1698 16.3904 23.4087 14.729 23.1661C13.0677 22.9236 11.533 22.212 10.3432 21.1325C9.15331 20.053 8.36894 18.6606 8.10161 17.1533C7.83428 15.6461 8.09761 14.1007 8.85413 12.7371C9.61065 11.3735 10.8218 10.261 12.3154 9.55783C13.809 8.85471 15.509 8.59677 17.1735 8.8207C18.8713 9.04912 20.4432 9.7669 21.6568 10.868C22.8705 11.9692 23.6617 13.3952 23.9135 14.9356Z" stroke="white" stroke-width="2" stroke-linecap="round" stroke-linejoin="round"/>
<path d="M25 7H25.05" stroke="white" stroke-width="2" stroke-linecap="round" stroke-linejoin="round"/>
</svg>
