<svg width="70" height="70" viewBox="0 0 70 70" fill="none" xmlns="http://www.w3.org/2000/svg">
<g clip-path="url(#clip0_62_1262)">
<path d="M52.0683 6.05408C52.0683 4.89565 52.0527 3.79501 52.0761 2.69545C52.0849 2.29805 51.9717 2.19992 51.6283 2.20482C49.9624 2.22391 48.2956 2.21355 46.6293 2.21355C46.4648 2.21355 46.2995 2.22282 46.1361 2.20919C45.5508 2.16122 45.1541 1.71856 45.1513 1.1129C45.1483 0.507255 45.5414 0.0188074 46.1269 0.0139011C48.4309 -0.00463371 50.735 -0.00463371 53.0391 0.0139011C53.6732 0.0188074 54.0351 0.474002 54.0415 1.22357C54.0537 2.60278 54.0454 3.98199 54.0454 5.3612V6.23016C54.5142 5.68502 54.8532 5.26634 55.2161 4.8733C55.7327 4.31071 56.319 4.28073 56.7366 4.7719C57.1366 5.24127 57.1059 5.87091 56.6215 6.4226C55.7142 7.45618 54.7979 8.48033 53.8727 9.49498C53.3102 10.1121 52.8161 10.1175 52.2629 9.51195C51.3374 8.49795 50.4207 7.47417 49.5127 6.44059C49.0044 5.86437 48.9761 5.21238 49.4073 4.74192C49.8386 4.27146 50.4001 4.33034 50.9302 4.90001C51.2717 5.26634 51.6039 5.6414 51.942 6.01156C51.9508 6.02246 51.9727 6.02246 52.0683 6.05408Z" fill="#00B5B3"/>
<path d="M28.6911 66.682C27.3545 66.682 26.0053 66.682 24.6565 66.682C23.6784 66.682 23.3677 66.3343 23.3667 65.2402C23.3647 62.8717 23.3647 60.503 23.3667 58.1342C23.3667 57.2293 23.694 56.7604 24.3252 56.7414C24.9842 56.7206 25.3413 57.2053 25.3428 58.1374C25.3428 60.0455 25.357 61.9535 25.3341 63.8614C25.3286 64.3488 25.4658 64.4954 25.895 64.4807C26.8311 64.4491 27.7682 64.4709 28.7828 64.3172C28.418 63.9269 28.0423 63.548 27.6911 63.1424C27.2257 62.6054 27.1994 61.9431 27.6003 61.4868C28.0013 61.0305 28.6096 61.0376 29.0818 61.5544C30.0379 62.6 30.9836 63.657 31.9189 64.7255C32.4116 65.2903 32.4101 65.8654 31.9189 66.4301C30.9846 67.5004 30.0388 68.5577 29.0813 69.6018C28.6091 70.118 28.0004 70.1251 27.5999 69.6645C27.1994 69.2038 27.234 68.5535 27.6926 68.0067C28.0292 67.6049 28.3755 67.2114 28.7131 66.8124C28.7203 66.8058 28.7067 66.7714 28.6911 66.682Z" fill="#00B5B3"/>
<path d="M31.9224 28.8231C31.919 30.4471 31.8951 32.0655 31.4961 33.646C30.9922 35.6395 30.1639 37.3529 28.6249 38.5326C27.9214 39.0711 27.6005 39.9004 27.6005 40.8843C27.6005 42.7171 27.6005 44.5499 27.6005 46.3826C27.6005 46.9229 27.6063 47.4626 27.5165 47.9957C27.0039 50.0951 25.4341 51.3931 23.7546 51.1074C21.9629 50.8026 20.7107 49.093 20.7034 46.9239C20.6966 45.0459 20.7034 43.1679 20.7004 41.2894C20.6971 40.0159 19.9794 39.1143 18.9809 39.1115C17.9824 39.1088 17.2576 40.0039 17.2541 41.2774C17.2493 43.1559 17.2565 45.0339 17.2541 46.9119C17.2482 49.3373 15.7775 51.1341 13.8092 51.1308C11.8839 51.1276 10.3653 49.2659 10.358 46.8886C10.3521 44.8852 10.358 42.8818 10.3556 40.8784C10.3556 39.8927 10.0282 39.0647 9.32389 38.5244C7.51898 37.1376 6.66775 35.0731 6.27311 32.7154C5.7019 29.3033 6.08189 26.0766 7.86288 23.1824C7.74971 22.99 7.59312 23.0822 7.46678 23.081C6.3897 23.0712 5.31165 23.0942 4.23506 23.069C2.32921 23.0238 0.85262 21.239 0.864327 19.0263C0.876037 16.8577 2.36677 15.0822 4.25018 15.0674C7.42824 15.0429 10.6068 15.0598 13.7849 15.0593H14.3463C10.7595 10.8159 11.9765 5.51385 14.3741 3.05472C17.0571 0.304474 21.142 0.36662 23.7297 3.21499C26.2043 5.9407 26.9741 11.1348 23.6068 15.0446H30.8376C31.0478 14.9034 31.2766 14.8843 31.5141 14.8854C32.2136 14.8854 32.9132 14.8762 33.6117 14.8881C35.1171 14.9148 36.2493 15.72 36.8839 17.2802C37.5283 18.8611 37.358 20.4235 36.3697 21.782C35.6902 22.7153 34.7941 23.219 33.7322 23.2462C32.7644 23.2719 31.7956 23.2609 30.8273 23.2462C30.4473 23.2408 30.3746 23.3733 30.5834 23.7439C30.8222 24.1626 31.0273 24.6041 31.1966 25.0632C31.2854 25.308 31.4103 25.5538 31.28 25.8362C31.677 26.7788 31.741 27.8179 31.9224 28.8231Z" stroke="#00B5B3" stroke-width="2" stroke-miterlimit="10"/>
<path d="M60.559 48.2807V60.1043C60.559 60.1043 59.9249 62.7679 58.0912 63.1811C56.2576 63.5944 55.4249 62.9227 54.7776 62.2298C54.1303 61.537 53.699 60.5607 53.6952 59.286C53.6913 58.0115 53.6659 49.4528 53.6659 49.4528C53.6659 49.4528 53.422 47.8997 52.1649 47.794C50.9078 47.6882 50.4575 48.8123 50.4575 48.8123L50.2264 59.9332C50.2264 59.9332 50.1581 62.7771 47.2507 63.3082C44.3434 63.8391 43.4239 59.9337 43.4239 59.9337V42.2024L43.3844 37.2651V36.4512C43.3844 36.4512 43.4497 36.0968 42.5551 36.1104C41.6605 36.1241 36.8873 36.1104 36.8873 36.1104C36.8873 36.1104 34.0634 35.7632 33.9512 32.2721C33.839 28.781 37.2683 28.3558 37.2683 28.3558L45.0956 28.3389C45.0956 28.3389 47.3609 32.1396 51.9342 32.2247C56.5073 32.3097 58.8425 28.3542 58.8425 28.3542H61.8668L65.4459 28.3395L67.0366 28.3542C67.0366 28.3542 70.0034 28.8584 70.0001 32.211C69.9966 35.5637 66.8596 36.1639 66.8596 36.1639L61.2327 36.1094C61.2327 36.1094 60.519 35.8913 60.541 37.1413C60.5629 38.3913 60.559 48.2807 60.559 48.2807Z" fill="#00B1AD"/>
<path d="M51.9722 30.3036C55.7654 30.3036 58.8405 26.821 58.8405 22.5249C58.8405 18.2289 55.7654 14.7463 51.9722 14.7463C48.1789 14.7463 45.1039 18.2289 45.1039 22.5249C45.1039 26.821 48.1789 30.3036 51.9722 30.3036Z" fill="#00B5B3"/>
</g>
<defs>
<clipPath id="clip0_62_1262">
<rect width="70" height="70" fill="white"/>
</clipPath>
</defs>
</svg>
