<svg width="34" height="25" viewBox="0 0 34 25" fill="none" xmlns="http://www.w3.org/2000/svg">
<rect x="1.18176" y="1" width="31" height="23" rx="4" fill="white"/>
<path d="M31.5328 4.60026C31.3654 3.89421 31.0246 3.24729 30.5446 2.72486C30.0646 2.20243 29.4626 1.82298 28.7993 1.62484C26.3758 1 16.6818 1 16.6818 1C16.6818 1 6.98772 1 4.56421 1.68435C3.90091 1.88249 3.29888 2.26194 2.81893 2.78437C2.33897 3.3068 1.99809 3.95371 1.83072 4.65977C1.38718 7.25665 1.17022 9.89102 1.18257 12.5298C1.16676 15.1884 1.38373 17.8428 1.83072 20.4593C2.01524 21.1434 2.36376 21.7657 2.84259 22.266C3.32143 22.7664 3.9144 23.1279 4.56421 23.3157C6.98772 24 16.6818 24 16.6818 24C16.6818 24 26.3758 24 28.7993 23.3157C29.4626 23.1175 30.0646 22.7381 30.5446 22.2156C31.0246 21.6932 31.3654 21.0463 31.5328 20.3402C31.9729 17.7629 32.1899 15.1486 32.181 12.5298C32.1968 9.87115 31.9798 7.21669 31.5328 4.60026V4.60026Z" stroke="white" stroke-width="2" stroke-linecap="round" stroke-linejoin="round"/>
<path d="M13.1818 18L21.1818 12.5L13.1818 7V18Z" fill="#00B1AD" stroke="#00B1AD" stroke-width="2" stroke-linecap="round" stroke-linejoin="round"/>
</svg>
