<svg width="71" height="87" viewBox="0 0 71 87" fill="none" xmlns="http://www.w3.org/2000/svg">
<path d="M67.6077 55.0043C67.6077 59.202 67.3515 63.4403 67.6963 67.5973C67.9433 70.6321 68.8751 73.6146 69.6904 76.5391C70.3847 79.039 70.2216 79.7482 68.1762 80.0274C61.7137 80.9692 55.2465 81.818 48.7886 82.7598C47.8731 82.8959 46.982 83.22 46.1514 83.7192C38.8579 88.1377 31.5924 88.0932 24.355 83.5854C23.6354 83.1334 22.8579 82.8422 22.0579 82.7249C15.4835 81.8006 8.89981 80.9808 2.32546 80.0506C0.354548 79.7657 0.0330526 78.9518 0.8531 76.696C2.44006 72.2486 3.2349 67.4245 3.18278 62.5567C3.18278 55.8184 2.95447 49.0277 3.5136 42.3476C4.62718 29.1558 10.1299 19.185 19.2249 12.4118C20.5063 11.4584 20.8557 10.5979 20.5482 8.85959C19.663 3.84221 19.7002 3.80151 23.6187 2.27246C31.8281 -1.01012 40.6861 -0.729391 48.7513 3.06897C50.1911 3.72012 50.7409 4.59801 50.3495 6.64451C49.5201 10.9526 49.6366 10.941 52.5301 13.3362C62.2309 21.3594 67.016 32.7546 67.3515 47.1672C67.4074 49.7777 67.3515 52.3998 67.3515 55.0043H67.6077ZM18.7171 79.0681C17.1515 76.1611 15.6186 73.7193 14.4212 71.0391C11.7141 65.0043 11.3786 58.3707 11.5323 51.6207C11.6162 47.2952 12.5947 45.6615 15.9495 44.9754C22.8267 43.6033 27.924 39.0511 31.3766 31.5396C33.422 27.0919 37.0843 27.1268 39.1344 31.5977C40.6141 34.979 42.6843 37.9018 45.1916 40.1499C48.0299 42.7124 51.335 44.3528 54.8084 44.9231C56.9564 45.2487 58.6245 46.6208 58.7876 49.301C59.1603 55.5858 59.5051 61.9985 57.3245 67.9054C55.9267 71.6554 54.063 75.1321 52.325 78.9518L66.4382 76.9809C65.8791 73.9867 65.0404 71.2659 64.9146 68.5043C64.6118 61.4171 64.5838 54.3068 64.5466 47.208C64.486 36.3011 61.1778 27.1791 54.8644 19.7665C53.2104 17.8188 51.2254 16.3072 49.1194 14.3362C48.6301 17.2432 48.1876 19.5688 47.8754 21.8943C47.661 23.5571 47.046 24.2605 45.6808 24.249C38.7011 24.2025 31.7244 24.2025 24.751 24.249C23.4882 24.249 22.836 23.6676 22.6216 22.0687C22.3327 19.6966 21.8668 17.3304 21.4428 14.9118C21.2161 14.9562 20.9931 15.0262 20.7765 15.1211C20.3665 15.3944 19.9612 15.7026 19.5744 15.999C10.7729 23.3361 6.16477 33.5861 5.89918 46.8126C5.75474 53.9812 5.81998 61.1672 5.51246 68.324C5.39131 71.231 4.52468 74.0275 3.94691 77.1437L18.7171 79.0681ZM56.169 55.0335V53.952C56.169 49.0103 56.169 49.0393 52.3436 47.9405C45.4991 45.9754 40.4483 41.0045 36.9212 33.5046C35.8402 31.1791 34.7546 30.9407 33.8507 32.9233C29.8483 41.644 23.9775 46.9697 15.9495 48.5219C15.3484 48.6382 14.4165 49.6847 14.4025 50.3649C14.2628 55.7892 14.081 61.2195 15.6931 66.4635C20.8185 83.1495 37.0703 88.9168 48.2155 77.8413C54.049 72.0332 56.4905 64.2543 56.169 55.0392V55.0335ZM45.308 20.7781C46.0349 16.3014 46.7804 11.9235 47.4141 7.51658C47.4161 7.17072 47.3486 6.82974 47.2175 6.52497C47.0864 6.2202 46.8961 5.96142 46.6639 5.77242C39.2678 2.51648 31.2014 2.51648 23.8051 5.77242C23.5747 5.96229 23.3863 6.22171 23.2576 6.52661C23.129 6.83152 23.064 7.17203 23.0689 7.51658C23.7026 11.9177 24.4667 16.2955 25.1703 20.7548L45.308 20.7781Z" fill="#00B5B3"/>
<path d="M35.3324 66.1614C37.7693 66.1614 40.2061 66.1614 42.6476 66.1614C44.1898 66.1614 44.7117 67.0975 44.5486 68.8997C44.3215 71.8058 43.2324 74.501 41.4951 76.4568C39.7577 78.4127 37.4975 79.4881 35.1575 79.4721C32.8176 79.456 30.5669 78.3498 28.8469 76.3703C27.1268 74.3908 26.0615 71.6808 25.8599 68.7719C25.7109 66.9404 26.3259 66.0742 27.8448 66.1032C30.3376 66.144 32.835 66.1032 35.3324 66.1032V66.1614ZM41.4361 69.7661H28.9211C29.2562 71.5978 30.0889 73.2285 31.2779 74.3815C32.4668 75.5345 33.9389 76.1387 35.4442 76.0916C36.8761 76.0689 38.2571 75.4253 39.3504 74.2711C40.4436 73.1171 41.181 71.5243 41.4361 69.7661Z" fill="#00B5B3"/>
</svg>
