<svg width="71" height="87" viewBox="0 0 71 87" fill="none" xmlns="http://www.w3.org/2000/svg">
<path d="M70.4324 16.9352V77.591C69.6748 80.356 68.0776 81.163 65.8639 81.1302C59.031 81.0282 52.1968 81.1008 45.3625 81.0801C44.8598 81.0801 44.6091 81.2132 44.4502 81.8767C43.2173 87.0091 37.9557 88.7476 34.9625 84.9493C34.1571 83.9263 33.6502 82.5299 33.0063 81.3013L33.1721 81.0939H32.3639C25.3712 81.0939 18.378 81.0939 11.3844 81.0939C8.81593 81.0939 7.42826 79.3226 7.4269 76.0617C7.4269 72.4914 7.40086 68.9213 7.44333 65.3475C7.45429 64.5043 7.24882 64.1241 6.64333 63.7542C3.62963 61.9173 1.97484 58.8465 1.66662 54.6351C1.60772 53.835 1.61046 53.0246 1.60908 52.2159C1.60908 41.8473 1.60543 31.4822 1.59813 21.1207C1.59813 20.7525 1.55019 20.2566 1.36251 20.0407C0.666619 19.2716 0.432373 18.3315 0.432373 17.2048C0.444702 12.6254 0.432373 8.04596 0.432373 3.46999C0.439222 1.11461 1.32963 0 3.21319 0H17.3598C19.4378 0 20.2652 1.03685 20.2666 3.64626V7.38584H52.8871C55.894 7.38584 58.9008 7.3772 61.9077 7.38584C64.3557 7.39793 65.7639 9.18304 65.7748 12.2694C65.7748 12.5788 65.7748 12.8881 65.7748 13.2372C66.4488 13.2873 67.0721 13.2372 67.6612 13.3961C69.1816 13.8005 70.0063 15.138 70.4324 16.9352ZM20.2666 10.3875C20.2666 12.7533 20.2584 15.0534 20.2666 17.35C20.2666 18.2538 20.1406 19.1248 19.5817 19.7036C19.1488 20.1581 19.0913 20.6489 19.0926 21.2779C19.1008 31.9333 19.1031 42.5899 19.0995 53.2475C19.0995 57.5781 17.7474 60.9756 14.8187 63.3258C14.6091 63.4986 14.4433 63.9581 14.4379 64.2899C14.4023 66.2479 14.4173 68.2058 14.4214 70.1655C14.4214 71.8019 14.7885 72.2496 16.1008 72.2496H33.7447C36.2104 72.2496 37.4064 70.9379 37.7707 67.8343C37.8734 66.9599 38.3186 66.3931 38.9118 66.374C39.5296 66.355 39.9981 66.9426 40.0954 67.855C40.4132 70.8532 41.6748 72.2478 44.0789 72.2496H61.7817C63.0776 72.2496 63.4488 71.7829 63.4488 70.1465C63.4488 50.9071 63.4488 31.6678 63.4488 12.4284C63.4488 10.7971 63.0803 10.3374 61.7762 10.3374C54.8054 10.3374 47.8337 10.3374 40.8611 10.3374H40.0954V61.0861C40.1071 61.432 40.0989 61.7786 40.0707 62.123C39.9817 62.8747 39.5995 63.324 39.02 63.3793C38.7547 63.4248 38.4856 63.3407 38.2679 63.144C38.0501 62.9474 37.9002 62.6533 37.8488 62.3217C37.7823 61.929 37.7556 61.5271 37.7693 61.1259C37.7693 44.5674 37.7693 28.0088 37.7693 11.4503V10.3875H20.2666ZM3.94608 20.6903V21.7531C3.94608 32.2023 3.94608 42.6514 3.94608 53.1007C3.94608 53.6761 3.96662 54.2533 4.00908 54.8287C4.3995 60.1858 9.37619 63.6057 13.1433 61.1033C15.631 59.4531 16.7652 56.8039 16.7652 53.3046C16.7652 42.7414 16.7652 32.1775 16.7652 21.6132C16.7652 21.3108 16.7365 21.0101 16.7201 20.6938L3.94608 20.6903ZM9.75707 64.9069V75.8924C9.75707 77.7207 10.0831 78.1388 11.5132 78.1388H33.5899C35.0324 78.1388 35.2652 78.3929 35.4735 80.197C35.7392 82.4798 37.2282 84.0835 39.0283 84.0247C39.8678 84.0011 40.6722 83.5945 41.2926 82.8803C41.9129 82.166 42.3071 81.1926 42.4023 80.14C42.5392 78.4983 42.857 78.1388 44.1926 78.1388H64.0146C64.9735 78.1388 65.9323 78.1561 66.8913 78.1267C67.6118 78.1043 68.0269 77.591 68.105 76.6959C68.1196 76.4377 68.1232 76.1787 68.1159 75.92C68.1159 56.7693 68.1159 37.6192 68.1159 18.4698C68.1293 18.1536 68.1192 17.8366 68.0858 17.5228C67.9666 16.7624 67.594 16.2941 66.9625 16.244C66.5844 16.2146 66.205 16.244 65.7804 16.244V17.4537C65.7804 34.965 65.7804 52.4762 65.7804 69.9875C65.7891 70.4494 65.7707 70.9115 65.7255 71.37C65.4584 73.6164 64.1064 75.1821 62.3132 75.189C56.0027 75.2155 49.6917 75.2155 43.3803 75.189C41.9337 75.189 40.6804 74.4563 39.6338 73.1931C39.394 72.9045 39.1831 72.5744 38.9584 72.2634C37.2228 74.6101 36.1145 75.2115 33.6008 75.2115H27.9255C23.9383 75.2115 19.9511 75.2115 15.9639 75.2115C13.5241 75.2115 12.1146 73.4229 12.0954 70.3297C12.0954 69.063 12.0954 67.7945 12.0954 66.5279V64.7376L9.75707 64.9069ZM2.76114 17.6161H17.894V3.00687H2.76114V17.6161Z" fill="#00B1AD"/>
<path d="M49.3914 30.9532V28.0067C48.3872 28.0067 47.3927 27.9722 46.3996 28.0206C46.0931 28.0469 45.786 27.9824 45.5026 27.8325C45.2194 27.6824 44.9678 27.451 44.7681 27.1565C44.1969 26.3754 43.5352 25.6928 43.005 24.872C42.695 24.3952 42.5043 23.813 42.4571 23.1992C42.3859 21.5034 42.3859 19.804 42.4571 18.1083C42.4981 17.4926 42.6858 16.9071 42.9955 16.4285C43.5951 15.5275 44.2545 14.6926 44.9667 13.9332C45.3076 13.5738 45.7292 13.3581 46.1722 13.3163C47.5584 13.2403 48.9516 13.2351 50.338 13.3163C50.8014 13.3669 51.2416 13.5948 51.5996 13.9695C52.2845 14.6849 52.8571 15.5524 53.505 16.3214C53.708 16.5524 53.8676 16.8373 53.9726 17.1555C54.0775 17.4738 54.1251 17.8175 54.1119 18.1619C54.0982 19.451 54.1119 20.7384 54.1119 22.1192C55.201 22.1192 56.2202 22.1433 57.2393 22.1192C57.5121 22.1012 57.7846 22.1609 58.0366 22.2937C58.2887 22.4265 58.5138 22.6291 58.6955 22.8864C59.2913 23.6779 59.9653 24.3864 60.5078 25.2314C60.8298 25.7236 61.0312 26.3236 61.0873 26.9578C61.1619 28.6534 61.1619 30.3531 61.0873 32.0487C61.0626 32.6242 60.7393 33.1789 60.5517 33.7405C60.5435 33.7647 60.5188 33.7802 60.505 33.8027C59.0996 36.2894 57.2462 37.4248 54.816 36.8562C54.2393 36.7215 54.0215 37.0585 54.1064 37.7635C54.1098 37.821 54.1098 37.8788 54.1064 37.9363C54.1064 42.2324 54.1064 42.2445 51.5256 45.12C51.1968 45.4608 50.7904 45.6606 50.3654 45.6902C48.979 45.7594 47.5859 45.7767 46.1996 45.6902C45.7476 45.6608 45.2407 45.3446 44.8845 44.9696C44.213 44.278 43.5997 43.5008 43.0544 42.6505C42.7176 42.1307 42.5082 41.4984 42.4516 40.8308C42.3713 39.1619 42.3713 37.4884 42.4516 35.8194C42.5041 35.1783 42.7057 34.5711 43.0311 34.0741C43.5915 33.203 44.2213 32.4067 44.9105 31.6979C45.3101 31.2989 45.7914 31.0514 46.2982 30.9843C47.3119 30.8788 48.3352 30.9532 49.3914 30.9532ZM55.3243 33.903C55.8024 33.903 56.2832 33.9324 56.7585 33.8892C56.976 33.8645 57.1835 33.7626 57.3571 33.5954C58.3681 32.5982 59.0873 31.4232 58.7872 29.6536C58.7466 29.3679 58.7466 29.0753 58.7872 28.7896C58.9243 27.6369 58.59 26.8058 57.9119 26.0038C57.338 25.3247 56.7969 24.9342 56.0051 25.0465C55.4837 25.1148 54.958 25.1148 54.4366 25.0465C53.7242 24.9584 53.2325 25.2936 52.705 25.9105C51.9955 26.7418 51.6325 27.6024 51.7557 28.8362C51.8311 29.6017 51.7284 30.3915 51.7859 31.1639C51.836 31.5698 51.9618 31.9547 52.153 32.2872C52.8791 33.6558 53.9051 34.1881 55.19 33.9013C55.2347 33.8984 55.2795 33.899 55.3243 33.903ZM44.7584 38.2975C44.7584 38.93 44.7352 39.5642 44.7681 40.1984C44.7854 40.4744 44.8653 40.7384 44.9982 40.9587C45.79 42.2254 46.7106 43.1551 48.116 42.7732C48.3879 42.7138 48.666 42.7138 48.938 42.7732C49.7749 42.9219 50.3722 42.5279 50.9695 41.7623C51.5667 40.9968 51.8763 40.2658 51.7845 39.1961C51.7311 38.4217 51.7311 37.6428 51.7845 36.8684C51.8174 36.2342 51.5859 35.8315 51.2955 35.3546C50.5544 34.1311 49.6352 33.7007 48.4531 33.896C47.9161 33.9859 47.3571 33.896 46.816 33.9219C46.619 33.9257 46.4277 34.006 46.2681 34.1518C45.3215 35.1679 44.427 36.2255 44.7681 38.0452C44.7714 38.1295 44.7682 38.214 44.7584 38.2975ZM48.2407 25.0568C49.6105 25.4803 50.6325 24.8115 51.4037 23.4273C51.5952 23.0942 51.715 22.7043 51.7516 22.2955C51.8037 21.4072 51.7228 20.5069 51.7804 19.6221C51.842 18.6837 51.5708 18.0408 51.0667 17.3548C50.4228 16.4787 49.7489 16.064 48.8092 16.2108C48.2651 16.2843 47.7163 16.2843 47.1722 16.2108C46.6242 16.1486 46.2722 16.4648 45.8599 16.8865C44.964 17.8006 44.5927 18.8842 44.7462 20.3236C44.8187 21.0028 44.7462 21.7062 44.7681 22.3974C44.7651 22.6751 44.8302 22.9473 44.9544 23.1768C45.7599 24.3639 46.5886 25.5321 48.0366 25.0603C48.1043 25.0488 48.1728 25.0476 48.2407 25.0568Z" fill="#00B1AD"/>
<path d="M54.7145 58.9727C53.12 58.9727 51.5254 58.9727 49.9309 58.9727C49.6807 58.9889 49.4297 58.9692 49.183 58.9139C48.9321 58.8596 48.7049 58.6938 48.5424 58.4466C48.3798 58.1995 48.2926 57.8871 48.2967 57.5661C48.2719 57.2606 48.3327 56.9537 48.4686 56.699C48.6045 56.4442 48.8069 56.2576 49.0405 56.1715C49.3231 56.0658 49.6171 56.0168 49.9117 56.0263C53.1008 56.0183 56.2899 56.0183 59.4789 56.0263C59.5926 56.0263 59.7076 56.0263 59.8214 56.0263C60.5926 56.1058 61.0858 56.6778 61.0926 57.4987C61.0994 58.3627 60.5939 58.9571 59.7706 58.9676C58.0857 58.9866 56.3994 58.971 54.7145 58.9727Z" fill="#00B1AD"/>
<path d="M32.5215 45.6923C31.9283 45.6923 31.3339 45.7372 30.7407 45.6802C30.0557 45.6145 29.6161 45.0131 29.6174 44.2373C29.6139 44.049 29.6405 43.8617 29.6956 43.6866C29.7507 43.5115 29.8331 43.3522 29.9381 43.2181C30.0431 43.0841 30.1684 42.9782 30.3065 42.9066C30.4446 42.8349 30.5927 42.7991 30.7421 42.8013C31.9242 42.7459 33.1105 42.7459 34.2941 42.8013C34.4434 42.8007 34.5913 42.8378 34.7292 42.9101C34.867 42.9826 34.9921 43.0888 35.097 43.2229C35.202 43.3569 35.2847 43.5159 35.3404 43.6906C35.3961 43.8654 35.4237 44.0523 35.4215 44.2407C35.4215 45.0149 34.9872 45.6145 34.2914 45.682C33.7078 45.7389 33.1133 45.694 32.5215 45.6923Z" fill="#00B1AD"/>
<path d="M24.2952 45.6955C23.7267 45.6955 23.1555 45.7388 22.5897 45.6834C21.8815 45.6142 21.4719 45.0509 21.4678 44.2508C21.4637 43.4508 21.8665 42.8389 22.5706 42.8045C23.7514 42.7439 24.9376 42.7439 26.1198 42.8045C26.8322 42.8373 27.239 43.4317 27.2432 44.2318C27.2473 45.0319 26.8431 45.6142 26.139 45.6834C25.5281 45.7439 24.9061 45.6955 24.2952 45.6955Z" fill="#00B1AD"/>
<path d="M24.3749 28.0054C23.8051 28.0054 23.2352 28.026 22.6667 28.0054C21.9324 27.9691 21.4749 27.404 21.4654 26.5762C21.4557 25.7485 21.9064 25.1195 22.627 25.09C23.7654 25.0434 24.9051 25.0451 26.0434 25.09C26.805 25.1177 27.2695 25.7588 27.2434 26.6177C27.2187 27.4419 26.7585 27.9811 26.0105 28.014C25.4694 28.0243 24.9215 28.0054 24.3749 28.0054Z" fill="#00B1AD"/>
<path d="M32.5418 27.9948C31.95 27.9948 31.3569 28.0242 30.761 27.9862C30.087 27.9447 29.6281 27.3434 29.6158 26.564C29.6076 26.3822 29.6281 26.2002 29.6758 26.0285C29.7236 25.8566 29.7978 25.6985 29.8941 25.563C29.9904 25.4275 30.1071 25.3172 30.2373 25.2387C30.3675 25.1603 30.5087 25.115 30.6528 25.1055C31.8857 25.0363 33.1186 25.0363 34.3418 25.0951C34.491 25.1042 34.6373 25.1503 34.7724 25.2308C34.9074 25.3114 35.0285 25.4247 35.1288 25.5643C35.2291 25.704 35.3065 25.8672 35.3567 26.0447C35.4069 26.2222 35.4288 26.4104 35.4213 26.5985C35.3939 27.3658 34.9199 27.9516 34.2473 27.9897C33.6829 28.0276 33.1116 27.9948 32.5418 27.9948Z" fill="#00B1AD"/>
<path d="M32.5186 33.891C31.9282 33.891 31.3378 33.9221 30.7501 33.8823C30.4626 33.8828 30.1858 33.7443 29.9769 33.4951C29.7679 33.246 29.6426 32.9052 29.6269 32.543C29.5843 31.7948 29.9529 31.0794 30.5858 31.0378C31.8744 30.9532 33.1656 30.9532 34.4542 31.0378C35.0789 31.0794 35.4665 31.8293 35.4131 32.5517C35.3597 33.274 34.9241 33.8409 34.2775 33.8823C33.6981 33.9221 33.1077 33.8926 32.5186 33.891Z" fill="#00B1AD"/>
<path d="M24.3392 39.7841C23.7475 39.7841 23.1543 39.8222 22.5584 39.7738C21.8912 39.7202 21.4858 39.1759 21.4625 38.4068C21.4392 37.6378 21.7967 36.9725 22.4557 36.9328C23.7267 36.8565 25 36.8605 26.2707 36.9449C26.9269 36.9881 27.2885 37.6621 27.2296 38.4449C27.1707 39.2277 26.805 39.7184 26.1748 39.7668C25.5447 39.8152 24.9419 39.7772 24.3324 39.7772L24.3392 39.7841Z" fill="#00B1AD"/>
<path d="M32.513 39.784C31.9213 39.784 31.3267 39.8202 30.7323 39.7753C30.0788 39.7251 29.6528 39.1653 29.6199 38.4152C29.5871 37.6653 29.972 36.9741 30.6185 36.936C31.8884 36.86 33.1651 36.8703 34.435 36.936C35.0665 36.9706 35.3939 37.565 35.4158 38.3479C35.4405 39.0893 34.987 39.6647 34.3527 39.7718C34.2853 39.7859 34.217 39.7941 34.1487 39.796H32.5048L32.513 39.784Z" fill="#00B1AD"/>
<path d="M24.3293 51.618C23.7814 51.618 23.2334 51.6542 22.6855 51.6093C21.8992 51.5436 21.4526 50.9613 21.4636 50.1076C21.4745 49.254 21.9335 48.7061 22.7362 48.6837C23.8065 48.6549 24.8768 48.6549 25.9472 48.6837C26.7594 48.7028 27.217 49.2298 27.2389 50.0852C27.2622 50.97 26.7909 51.5385 25.9649 51.6215C25.9198 51.6215 25.8731 51.6215 25.828 51.6215H24.3211L24.3293 51.618Z" fill="#00B1AD"/>
<path d="M32.5777 48.6904C33.1476 48.6904 33.7188 48.6559 34.2859 48.7008C34.9708 48.7543 35.4188 49.3471 35.4269 50.123C35.4385 50.4891 35.3343 50.8461 35.1372 51.1154C34.9403 51.3847 34.6666 51.5442 34.3763 51.5591C33.1283 51.6247 31.8736 51.6247 30.6256 51.5452C29.9804 51.5037 29.5941 50.8143 29.6242 50.0694C29.6544 49.3246 30.0804 48.7543 30.7338 48.7043C31.3462 48.6593 31.9667 48.6939 32.5777 48.6939V48.6904Z" fill="#00B1AD"/>
<path d="M24.3707 33.8984C23.8009 33.8984 23.231 33.9225 22.6625 33.8984C21.9461 33.8603 21.5105 33.3471 21.4708 32.5522C21.4282 31.721 21.8433 31.0366 22.5666 30.9969C23.7707 30.933 24.9817 30.933 26.1858 31.0073C26.8707 31.0504 27.2721 31.714 27.2461 32.5142C27.22 33.3143 26.7872 33.8535 26.0817 33.8966C25.5105 33.9225 24.9406 33.8966 24.3707 33.8984Z" fill="#00B1AD"/>
<path d="M59.3459 53.0519C58.1801 53.0692 57.6021 52.5784 57.6089 51.5968C57.6158 50.6152 58.2007 50.1176 59.3624 50.1262C59.6341 50.1147 59.9061 50.1408 60.1733 50.2039C60.7679 50.3767 61.1473 50.9989 61.0802 51.7022C61.0062 52.4746 60.661 52.9621 60.0281 53.0467C59.801 53.064 59.5732 53.0657 59.3459 53.0519Z" fill="#00B1AD"/>
<path d="M44.0927 58.9829C43.8886 58.969 43.6817 58.9742 43.479 58.9396C42.8872 58.8394 42.442 58.276 42.4544 57.5572C42.4667 56.8383 42.7283 56.2317 43.3365 56.1297C43.896 56.0339 44.4633 56.0339 45.0228 56.1297C45.2973 56.1816 45.5449 56.3672 45.7121 56.6467C45.8794 56.9262 45.953 57.2772 45.9173 57.6246C45.827 58.3901 45.4831 58.8809 44.8434 58.9448C44.5941 58.969 44.3434 58.9448 44.0927 58.9448V58.9829Z" fill="#00B1AD"/>
<path d="M59.5144 64.8807C58.1747 64.8807 57.5884 64.3622 57.6116 63.3754C57.6349 62.3888 58.2007 61.9238 59.3117 61.9273C59.5612 61.9201 59.8108 61.938 60.0582 61.9809C60.6979 62.1157 61.1048 62.705 61.0898 63.4411C61.0747 64.1774 60.6596 64.7389 60.009 64.8443C59.7843 64.8789 59.5555 64.8772 59.5144 64.8807Z" fill="#00B1AD"/>
<path d="M6.28029 35.4259C6.28029 32.2002 6.28029 28.9779 6.28029 25.759C6.26646 25.4121 6.28346 25.0643 6.33097 24.7222C6.37208 24.4207 6.4953 24.1469 6.67936 23.9479C6.86342 23.7488 7.09678 23.637 7.33919 23.6318C7.90357 23.5816 8.32549 23.8875 8.49809 24.5718C8.58259 24.9594 8.61999 25.3608 8.60905 25.7625C8.61453 32.1783 8.61453 38.5941 8.60905 45.0099C8.61602 45.3826 8.58471 45.755 8.5159 46.1177C8.46313 46.4326 8.31994 46.7118 8.11385 46.9015C7.90776 47.0914 7.65332 47.1784 7.39947 47.1458C6.81179 47.1164 6.42549 46.6965 6.31727 45.9482C6.28297 45.6346 6.27058 45.3177 6.28029 45.0012C6.27846 41.8158 6.27846 38.624 6.28029 35.4259Z" fill="#00B1AD"/>
<path d="M6.30493 53.0871C6.30493 52.541 6.27205 51.9897 6.31315 51.4488C6.3316 51.0983 6.45515 50.7698 6.65871 50.53C6.86227 50.2902 7.13054 50.1572 7.40904 50.158C7.98438 50.1787 8.48438 50.5157 8.52822 51.283C8.60219 52.4827 8.60219 53.688 8.52822 54.8877C8.47753 55.6533 7.93644 56.0715 7.34329 55.9937C6.75013 55.9159 6.38438 55.4753 6.32 54.7253C6.27205 54.1844 6.3063 53.6332 6.30493 53.0871Z" fill="#00B1AD"/>
</svg>
