<svg width="71" height="83" viewBox="0 0 71 83" fill="none" xmlns="http://www.w3.org/2000/svg">
<path d="M33.6212 0H36.8918C37.0645 0.0582111 37.2399 0.10501 37.4169 0.14018C44.3215 1.07902 49.7288 4.96093 53.639 11.7859C53.7335 11.9519 53.8462 12.105 53.9624 12.2863C54.4203 11.5854 54.7892 10.852 55.2925 10.2914C56.0193 9.48048 56.1883 8.55313 56.1683 7.41659C56.1247 4.94943 56.1865 2.4801 56.2047 0.0107831H58.385C58.4289 0.296023 58.4586 0.584064 58.474 0.873429C58.474 3.61664 58.4632 6.35985 58.4868 9.10307C58.4977 9.4636 58.4444 9.82279 58.3304 10.1572C58.2165 10.4917 58.0444 10.7939 57.8254 11.044C56.0816 13.1693 54.7291 15.7014 53.8535 18.48C52.8996 21.441 52.5942 24.5186 52.6542 27.6607C52.6742 28.7584 52.7033 29.8799 52.5489 30.9539C52.1528 33.6777 51.6531 36.3821 51.1988 39.0951C51.0825 39.7809 50.9699 40.4667 50.87 41.1546C50.6628 42.5759 51.2733 43.7792 52.3436 44.0791C53.4447 44.3875 54.4531 43.693 54.8219 42.3257C55.9715 38.0528 57.115 33.779 58.2524 29.5047C58.3378 29.1854 58.4341 28.8706 58.5395 28.5277L60.7199 29.3774C59.5588 33.6906 58.3414 37.8572 57.333 42.1014C56.5044 45.5822 55.516 48.9335 53.9243 52.0478C52.6525 54.5494 51.5295 57.1676 50.3576 59.7447C49.7489 61.0839 50.1486 62.5267 51.237 63.0486C52.1455 63.4799 52.9668 63.1112 53.59 61.953C56.3373 56.8592 59.0791 51.7623 61.8155 46.6627C61.9683 46.3664 62.0903 46.0492 62.1789 45.7181C63.9233 39.5307 65.6712 33.3434 67.3846 27.1431C67.6027 26.3549 67.7167 25.5315 67.7225 24.7019C67.7516 16.4701 67.7462 8.24042 67.7498 0.00862646H70.061V26.1511C69.9193 26.7399 69.7921 27.3351 69.6304 27.9173C67.9794 33.8006 66.3241 39.6831 64.6645 45.5649C64.4574 46.3003 64.3012 47.094 63.9632 47.7366C61.1142 53.1023 58.2409 58.45 55.3434 63.7797C55.0317 64.3611 54.616 64.8539 54.1258 65.2233C53.6356 65.5926 53.0829 65.8294 52.507 65.9169C51.2951 66.1434 50.2413 65.6883 49.2601 64.8644C49.0293 65.1514 48.8313 65.4058 48.626 65.6538C48.0318 66.3741 47.1905 66.978 46.9071 67.8406C46.6055 68.7507 46.8489 69.9066 46.8326 70.9569C46.7799 74.1444 46.9961 77.2931 47.8156 80.3533C48.2408 81.9384 47.7938 82.6522 46.402 82.6522H30.5705C28.3284 82.6522 26.0844 82.6522 23.8476 82.6522C22.8646 82.6522 22.2832 81.8716 22.5758 80.8471C23.7695 76.6848 23.7059 72.3825 23.666 68.0779C23.6721 67.8434 23.6077 67.6141 23.4842 67.4309C22.7393 66.5682 21.9689 65.7531 21.2057 64.9205C18.5493 66.7969 16.4544 66.2146 14.7918 63.1263C12.1074 58.1358 9.42622 53.1497 6.74795 48.168C6.50345 47.7177 6.30578 47.234 6.15925 46.7273C4.38586 40.4731 2.61066 34.206 0.889971 27.926C0.612726 26.9062 0.46753 25.8424 0.459344 24.7709C0.423004 16.5132 0.433906 8.25767 0.433906 0H2.74693C2.74693 8.25767 2.74693 16.5175 2.77237 24.7752C2.77761 25.5518 2.88364 26.3229 3.08671 27.0612C4.31864 31.5556 5.66685 36.0068 6.82608 40.5271C7.78931 44.3619 9.24945 47.9954 11.1541 51.2972C13.1747 54.7974 15.0207 58.4442 16.9504 62.0178C17.5409 63.1068 18.404 63.4756 19.2688 63.0507C20.359 62.5159 20.7588 61.0732 20.1501 59.7447C18.3549 55.8261 16.5416 51.9205 14.7427 48.0041C14.5699 47.6267 14.4287 47.2302 14.3212 46.8201C13.5126 43.6628 12.7295 40.4926 11.9119 37.331C11.2286 34.6935 10.5109 32.0689 9.78959 29.3688L11.97 28.5385C12.0754 28.8943 12.1698 29.1854 12.2517 29.4917C13.3987 33.7705 14.5471 38.047 15.6966 42.3214C16.0728 43.7167 17.1157 44.4155 18.2404 44.064C19.2471 43.7491 19.8594 42.5543 19.6649 41.2388C19.5069 40.1798 19.3016 39.1318 19.1471 38.075C18.602 34.3807 17.7226 30.7663 17.8316 26.9362C18.0133 20.7272 16.1963 15.3551 12.5787 10.8435C12.3443 10.5501 12.0935 10.1145 12.0899 9.74358C12.0445 6.54316 12.0626 3.34276 12.0736 0.144493C12.0736 0.0970477 12.1117 0.0474455 12.1317 0H14.3121C14.3321 0.319179 14.3666 0.646984 14.3666 0.959694C14.3666 3.43117 14.3666 5.90265 14.3666 8.37198C14.3666 8.6588 14.3557 9.01896 14.4847 9.21953C15.1515 10.2461 15.8784 11.2338 16.5852 12.2625C16.7196 12.0339 16.8359 11.8312 16.9485 11.6393C19.9884 6.32535 24.1002 2.74322 29.3041 0.996355C30.7122 0.524058 32.1803 0.325649 33.6212 0ZM50.3612 24.7558C50.4048 24.4107 50.4321 24.1519 50.4702 23.8931C50.681 22.4935 50.8336 21.0766 51.1261 19.7028C51.2117 19.3933 51.2278 19.0627 51.173 18.7436C51.1182 18.4244 50.9943 18.1277 50.8137 17.8826C43.1441 6.13341 28.1103 5.82286 20.1065 17.2529C19.4342 18.2148 18.9999 19.1097 19.5414 20.3282C19.5825 20.4531 19.6071 20.5847 19.6141 20.7186C19.7958 22.0363 19.9775 23.3518 20.1828 24.7342C23.2176 23.2777 26.5709 23.0421 29.7292 24.0635C29.5312 24.9801 29.355 25.8018 29.166 26.673C28.9116 26.6191 28.7154 26.5802 28.5209 26.5328C25.8245 25.8859 23.2062 26.1403 20.6806 27.4947C20.3027 27.6952 20.1046 27.9433 20.161 28.4587C20.3154 29.8928 20.4372 31.3313 20.6152 32.759C20.6542 32.8798 20.7177 32.9873 20.8001 33.0719C20.8826 33.1567 20.9814 33.2158 21.0876 33.2442C22.4431 33.3499 23.8023 33.4706 25.1577 33.4448C26.5132 33.4189 27.8541 33.2291 29.2586 33.0976C29.3822 33.9365 29.5057 34.7711 29.642 35.6855C26.8294 36.3174 24.0439 36.367 21.1785 36.078C21.4547 37.7904 21.7381 39.3625 21.9598 40.9497C22.0554 41.6276 22.0343 42.3214 21.8978 42.9893C21.7614 43.6571 21.5124 44.2853 21.1658 44.8358C20.8193 45.3864 20.3824 45.848 19.8815 46.1927C19.3806 46.5374 18.8261 46.7582 18.2513 46.8417C17.7908 46.8743 17.3291 46.8743 16.8686 46.8417C17.0303 47.2039 17.1448 47.4627 17.2629 47.7215C18.8818 51.2325 20.4899 54.7521 22.1252 58.2544C22.6521 59.3803 22.9137 60.5556 22.7012 61.815C22.6545 62.0295 22.6572 62.2549 22.709 62.4677C22.7608 62.6806 22.8598 62.8729 22.9955 63.0249C26.8003 68.0347 31.5463 70.2366 37.168 69.5207C41.3471 68.9858 44.8266 66.717 47.5703 62.9063C47.7411 62.6793 47.8304 62.3822 47.8192 62.0781C47.6045 60.7736 47.7983 59.4209 48.3643 58.2739C50.0105 54.75 51.6349 51.2067 53.2593 47.672C53.3756 47.4218 53.4846 47.1674 53.5555 47.0077C52.7741 46.8525 51.9856 46.833 51.2806 46.5354C49.1384 45.6274 48.1227 43.1279 48.6242 40.2424C48.8549 38.9139 49.0711 37.5811 49.3073 36.1707C46.8071 36.313 44.4269 36.216 42.0122 35.679C42.1484 34.7603 42.2738 33.9257 42.4046 33.0458C42.6844 33.0716 42.9061 33.0997 43.1314 33.1105L49.2328 33.3973C49.5399 33.4103 49.8252 33.3973 49.8725 32.9034C50.0215 31.3615 50.2031 29.8238 50.3122 28.2775C50.3285 28.0446 50.0723 27.6672 49.8651 27.5464C48.0215 26.4845 45.9714 26.0294 43.929 26.2288C43.0769 26.3063 42.2302 26.4767 41.3199 26.6147L40.7748 24.0484C43.9499 23.0391 47.3159 23.2875 50.3612 24.7558ZM25.4448 79.8702H45.0574C44.8236 76.4512 44.5898 73.046 44.356 69.6543C38.3127 73.4198 32.1822 73.4069 26.1516 69.6543C25.9179 73.0546 25.6822 76.4598 25.4448 79.8702ZM40.5894 3.5541L36.4721 2.77557V6.10322C37.3152 6.23046 38.0965 6.3728 38.8815 6.45043C38.99 6.45796 39.0986 6.43649 39.1993 6.38759C39.2999 6.3387 39.3899 6.26363 39.4629 6.16791C39.8481 5.39154 40.1679 4.56124 40.5894 3.5541ZM34.0482 2.76909L29.9237 3.58645C30.3435 4.58928 30.6723 5.40663 31.0356 6.20458C31.0803 6.28505 31.1402 6.35197 31.2106 6.39992C31.2809 6.44787 31.3599 6.47551 31.4409 6.48063C32.3094 6.37495 33.1725 6.22614 34.0482 6.09028V2.76909ZM46.4401 6.80628L42.8007 4.47929C42.3809 5.48212 42.0249 6.32966 41.6687 7.17505L44.7576 8.61783L46.4401 6.80628ZM24.0748 6.80628L25.6937 8.63724L28.8335 7.16642L27.6888 4.47282L24.0748 6.80628ZM50.6846 11.3805L48.1518 8.72782L47.0106 10.0671L49.7852 12.532L50.6846 11.3805ZM22.3178 8.66312L19.774 11.346L20.7097 12.532C21.66 11.6889 22.5576 10.893 23.4824 10.0692L22.3178 8.66312ZM18.5693 13.867C17.877 14.9151 17.877 14.969 18.2277 15.6398L19.0781 14.5075C18.9981 14.3889 18.9491 14.3048 18.8963 14.2315C18.7982 14.1194 18.6983 14.018 18.5693 13.867ZM52.3017 15.6721C52.6216 14.9454 52.5942 14.8288 51.9166 13.8778L51.4223 14.499L52.3017 15.6721Z" fill="#00B5B3"/>
<path d="M36.3668 42.7009H34.1555V27.624H36.3668V42.7009Z" fill="#00B5B3"/>
<path d="M40.6275 50.856C37.0389 49.2255 33.4831 49.2039 29.8836 50.856L29.0223 48.3088C33.2015 46.385 37.2969 46.3935 41.4815 48.3088L40.6275 50.856Z" fill="#00B5B3"/>
</svg>
