<svg width="100" height="101" viewBox="0 0 100 101" fill="none" xmlns="http://www.w3.org/2000/svg">
<path d="M61.2251 100.005H6.68396C6.57619 99.9367 6.46152 99.8792 6.34174 99.8334C2.34741 98.8334 0.0561453 96.0026 0.0294094 91.9948C0.0133679 89.7162 0.0294094 87.4375 0.0294094 85.1589C0.0294094 78.9089 0.0294094 72.6589 0.0294094 66.4089C0.0294094 65.086 0.778013 64.2761 1.94904 64.2474C3.12007 64.2188 3.97027 65.0521 4.03176 66.3854C4.03176 66.6459 4.03176 66.9063 4.03176 67.1667C4.03176 75.3368 4.03176 83.5061 4.03176 91.6745C4.03176 94.6407 5.53699 96.1016 8.57686 96.1016H59.3241C62.3613 96.1016 63.8692 94.6328 63.8692 91.6589V53.9714H59.1771V80.0729C59.1771 82.1146 58.5033 82.7813 56.4367 82.7813H11.6221C9.61153 82.7813 8.92442 82.1042 8.92442 80.1302V23.1042C8.92442 21.1719 9.60084 20.5156 11.5686 20.5H31.9065V15.9115H8.63033C5.51293 15.9115 4.03711 17.362 4.03711 20.4037C4.03711 29.0287 4.03711 37.6545 4.03711 46.2813C4.03711 47.1276 4.03711 47.974 4.03711 48.8203C4.03711 49.6667 3.65746 50.3828 2.80192 50.7787C1.61752 51.3229 0 50.4714 0 48.6328C0.0561452 39.0677 0.0240622 29.4948 0.032083 19.9245C0.0210935 19.372 0.066771 18.8197 0.168436 18.276C0.970511 14.4375 4.14405 12.026 8.43248 12.0104C15.8517 11.9922 23.2709 12.0104 30.6901 12.0104H31.8156C31.8684 11.9155 31.9096 11.8151 31.9386 11.7109C31.9386 11.4193 31.9386 11.1276 31.9627 10.8333C32.206 6.21875 34.4678 2.90104 38.7643 0.9375C39.7134 0.505208 40.7748 0.307292 41.7854 0H90.0998C90.1793 0.0611867 90.27 0.107136 90.3671 0.135417C95.2571 0.703125 100.075 5.14323 99.992 11.5651C99.869 21.849 99.9653 32.138 99.9573 42.4219C99.9573 49.1927 95.1448 53.9089 88.1935 53.9167C81.809 53.9167 75.4262 53.9167 69.0453 53.9167H67.8689V55.1719C67.8689 67.4115 67.8689 79.6511 67.8689 91.8906C67.8689 95.4818 65.9974 98.2448 62.8051 99.4688C62.2945 99.6667 61.7598 99.8282 61.2251 100.005ZM12.9963 24.4505V78.8021H55.0758V56.4479C54.648 56.8099 54.3459 57.0625 54.0518 57.3203C52.2605 58.8828 50.4585 60.4453 48.6913 62.0261C47.9079 62.7292 47.1005 63.2526 46.0177 62.8073C44.9349 62.362 44.7691 61.4089 44.7932 60.3672C44.828 58.7735 44.7932 57.1797 44.7932 55.586V53.9115H43.7478C36.8607 53.875 31.9627 49.0938 31.96 42.3958C31.96 36.7656 31.96 31.1354 31.96 25.5052V24.4505H12.9963ZM48.7929 56.6615C51.0815 54.6615 53.1909 52.862 55.2389 50.9974C55.5957 50.6609 56.0191 50.3986 56.4834 50.2267C56.9477 50.0548 57.443 49.9768 57.9392 49.9974C68.163 50.0235 78.3868 50.0235 88.6106 49.9974C92.7038 49.9974 95.9095 47.013 95.9282 43.099C95.9799 32.3351 95.9799 21.5642 95.9282 10.7865C95.914 8.95361 95.1539 7.20111 93.8145 5.91362C92.4752 4.62613 90.6661 3.90887 88.7844 3.91927C73.5824 3.89323 58.3804 3.89323 43.1784 3.91927C42.2294 3.91583 41.2891 4.09535 40.4117 4.44748C39.5343 4.79962 38.7371 5.3174 38.0661 5.971C37.3951 6.6246 36.8635 7.40109 36.502 8.25571C36.1405 9.11034 35.9562 10.0262 35.9597 10.9505C35.9347 21.6224 35.9347 32.2995 35.9597 42.9818C35.9569 44.6097 36.541 46.1869 37.6101 47.4381C38.6792 48.6894 40.1655 49.5353 41.8095 49.8281C43.3388 50.0886 44.9349 49.9766 46.5016 50.0182C48.0095 50.0573 48.7688 50.7839 48.7822 52.2604C48.8036 53.6511 48.7929 55.0339 48.7929 56.6615Z" fill="#00B5B3"/>
<path d="M34.3288 87.8386C35.3982 87.8386 36.4676 87.8073 37.5371 87.8386C38.7321 87.8829 39.5316 88.6589 39.5583 89.7162C39.5687 89.9702 39.5267 90.2236 39.4347 90.4615C39.3428 90.6993 39.2029 90.9168 39.0232 91.1011C38.8434 91.2854 38.6276 91.4327 38.3884 91.5343C38.1492 91.6359 37.8916 91.6898 37.6306 91.6927C35.4276 91.7526 33.2219 91.7552 31.0189 91.6927C30.7575 91.6864 30.5002 91.6284 30.2626 91.522C30.0251 91.4157 29.8122 91.2633 29.6371 91.0742C29.462 90.8851 29.3282 90.6633 29.244 90.4222C29.1598 90.1811 29.1269 89.9258 29.1474 89.6719C29.2008 88.6459 29.9735 87.8959 31.1178 87.849C32.1872 87.8073 33.2593 87.8412 34.3288 87.8386Z" fill="#00B5B3"/>
<path d="M0.0428737 57.3672C0.0320878 57.1157 0.0734782 56.8647 0.164571 56.6291C0.255663 56.3935 0.394587 56.1783 0.573036 55.9962C0.751486 55.8141 0.965797 55.6689 1.20316 55.5694C1.44052 55.4698 1.69605 55.4179 1.95448 55.4167C2.21828 55.4038 2.48203 55.4428 2.73007 55.5312C2.97811 55.6196 3.20536 55.7557 3.39834 55.9313C3.59131 56.107 3.74605 56.3187 3.85337 56.5537C3.96069 56.7888 4.0184 57.0425 4.02306 57.2997C4.02772 57.5569 3.97924 57.8125 3.88051 58.0511C3.78177 58.2897 3.63479 58.5065 3.4483 58.6887C3.26182 58.8709 3.03963 59.0147 2.79495 59.1116C2.55027 59.2085 2.28809 59.2564 2.024 59.2527C1.76581 59.2593 1.50888 59.2154 1.26844 59.1235C1.02799 59.0317 0.80891 58.8937 0.624174 58.7179C0.439438 58.5421 0.292802 58.332 0.192952 58.1C0.0931026 57.868 0.0420688 57.6188 0.0428737 57.3672Z" fill="#00B5B3"/>
<path d="M34.278 67.5442H46.8064C47.1399 67.5351 47.4736 67.5429 47.8063 67.5676C48.2582 67.6084 48.6817 67.8 49.0051 68.11C49.3286 68.42 49.532 68.8294 49.5811 69.2688C49.6302 69.7083 49.5218 70.1507 49.2744 70.5212C49.027 70.8917 48.6557 71.1676 48.2234 71.302C47.8377 71.4049 47.4387 71.4523 47.039 71.4426C38.553 71.4426 30.0671 71.4426 21.5812 71.4426C21.3134 71.4528 21.0453 71.4433 20.7791 71.414C20.2761 71.3588 19.8126 71.122 19.48 70.7503C19.1474 70.3786 18.9699 69.8991 18.9824 69.4062C19.0056 68.9132 19.2215 68.4476 19.5859 68.1047C19.9503 67.7619 20.4356 67.5679 20.9422 67.5624C21.91 67.5233 22.8778 67.5468 23.8483 67.5468L34.278 67.5442Z" fill="#00B5B3"/>
<path d="M28.6073 59.8022C26.169 59.8022 23.7334 59.8022 21.2951 59.8022C19.9022 59.8022 19.0092 59.0418 18.9905 57.8986C18.9717 56.7554 19.8727 55.9142 21.2363 55.909C26.2091 55.8917 31.1829 55.8917 36.1575 55.909C37.4943 55.909 38.4007 56.7996 38.3579 57.9376C38.3151 59.0756 37.4596 59.7918 36.1174 59.7996C33.6069 59.8126 31.1045 59.8022 28.6073 59.8022Z" fill="#00B5B3"/>
<path d="M23.7334 36.5647C22.7976 36.5647 21.8618 36.5959 20.9288 36.5647C20.4191 36.5614 19.9308 36.3649 19.5674 36.0168C19.2041 35.6687 18.9942 35.1964 18.9824 34.7001C18.945 33.7314 19.6401 32.7913 20.6935 32.7444C22.7227 32.6558 24.7627 32.6558 26.7919 32.7444C27.8346 32.7913 28.5405 33.7574 28.4897 34.7131C28.4696 35.2067 28.2545 35.6736 27.8893 36.0162C27.5241 36.3589 27.037 36.5507 26.5299 36.5517C25.6022 36.596 24.6664 36.5647 23.7334 36.5647Z" fill="#00B5B3"/>
<path d="M23.7067 44.3204C24.6425 44.3204 25.5782 44.2944 26.5113 44.3204C27.018 44.3215 27.5052 44.5106 27.8738 44.8493C28.2423 45.188 28.4645 45.6507 28.4951 46.1433C28.5114 46.3971 28.4757 46.6516 28.3901 46.8918C28.3045 47.1321 28.1708 47.3533 27.9967 47.5428C27.8225 47.7323 27.6115 47.8862 27.3758 47.9955C27.1401 48.1049 26.8844 48.1675 26.6236 48.1798C24.6906 48.2475 22.7523 48.2475 20.8193 48.1798C20.3093 48.1528 19.8307 47.9314 19.487 47.5635C19.1433 47.1956 18.9621 46.7107 18.9825 46.2136C18.9986 45.7048 19.2185 45.2222 19.5953 44.8693C19.9721 44.5165 20.4757 44.3213 20.9984 44.3256C21.9021 44.2944 22.8057 44.3204 23.7067 44.3204Z" fill="#00B5B3"/>
<path d="M49.1939 13.6093C49.1939 12.4504 49.1698 11.4426 49.1939 10.4374C49.2233 9.33847 49.9157 8.47909 51.0092 8.46868C54.6132 8.43222 58.2279 8.35149 61.8212 8.59107C63.2596 8.68743 64.6472 9.56764 66.2968 10.1796C68.0292 8.52336 70.5585 8.3567 73.1839 8.41399C75.5901 8.47128 77.9963 8.41399 80.4026 8.42961C82.0335 8.42961 82.7874 9.1692 82.8088 10.7577C82.8275 11.664 82.8088 12.5807 82.8088 13.6223C84.7284 13.6223 86.5518 13.6223 88.3832 13.6223C88.8163 13.5953 89.251 13.6393 89.6692 13.7525C90.637 14.1067 90.9605 14.8775 90.9552 15.8515C90.9391 18.7786 90.9552 21.7083 90.9552 24.6353C90.9552 30.3958 90.9552 36.1553 90.9552 41.914C90.9552 43.927 90.3296 44.5338 88.2682 44.5338H43.7772C41.7774 44.5338 41.1437 43.9166 41.1437 41.9609C41.1437 33.3393 41.1437 24.7169 41.1437 16.0937C41.1437 14.2525 41.7827 13.6249 43.6596 13.6197C45.4509 13.6041 47.2555 13.6093 49.1939 13.6093ZM68.0159 33.388C71.6038 32.2994 75.2025 33.1015 78.7423 32.7369V12.3749C76.0099 12.3749 73.339 12.2708 70.6814 12.4114C68.9329 12.5051 68.0079 13.7135 68.0079 15.414V33.3827L68.0159 33.388ZM53.2497 32.7447C56.8617 33.0833 60.4523 32.3046 64.0055 33.3906V32.2473C64.0055 26.657 64.0055 21.065 64.0055 15.4713C64.0055 13.7525 63.0484 12.4999 61.2811 12.4088C58.6289 12.2708 55.9634 12.3723 53.2604 12.3723L53.2497 32.7447ZM82.8222 17.5156V33.9661C82.8222 36.0911 82.1832 36.7213 80.039 36.7213C77.0659 36.7213 74.0929 36.6952 71.1199 36.7343C69.3741 36.7551 67.2913 38.0364 68.179 40.5572H86.894V17.5624C86.5037 17.5442 86.1775 17.5208 85.8513 17.5182C84.8808 17.5129 83.921 17.5156 82.8222 17.5156ZM63.9413 40.5755C64.1285 38.3385 63.3585 37.164 61.5164 36.7916C61.1553 36.7317 60.7889 36.7082 60.4229 36.7213C57.5194 36.7213 54.6159 36.7213 51.7097 36.7213C49.8676 36.7213 49.1912 36.052 49.1912 34.2317C49.1912 29.0234 49.1912 23.8211 49.1912 18.6249V17.5989H45.2236V40.5755H63.9413Z" fill="#00B5B3"/>
</svg>
