<svg width="70" height="94" viewBox="0 0 70 94" fill="none" xmlns="http://www.w3.org/2000/svg">
<g clip-path="url(#clip0_62_1261)">
<path d="M52.0683 6.05408C52.0683 4.89565 52.0527 3.79501 52.0761 2.69545C52.0849 2.29805 51.9717 2.19992 51.6283 2.20482C49.9624 2.22391 48.2956 2.21355 46.6293 2.21355C46.4648 2.21355 46.2995 2.22282 46.1361 2.20919C45.5508 2.16122 45.1541 1.71856 45.1513 1.1129C45.1483 0.507255 45.5414 0.0188074 46.1269 0.0139011C48.4309 -0.00463371 50.735 -0.00463371 53.0391 0.0139011C53.6732 0.0188074 54.0351 0.474002 54.0415 1.22357C54.0537 2.60278 54.0454 3.98199 54.0454 5.3612V6.23016C54.5142 5.68502 54.8532 5.26634 55.2161 4.8733C55.7327 4.31071 56.319 4.28073 56.7366 4.7719C57.1366 5.24127 57.1059 5.87091 56.6215 6.4226C55.7142 7.45618 54.7979 8.48033 53.8727 9.49498C53.3102 10.1121 52.8161 10.1175 52.2629 9.51195C51.3374 8.49795 50.4207 7.47417 49.5127 6.44059C49.0044 5.86437 48.9761 5.21238 49.4073 4.74192C49.8386 4.27146 50.4001 4.33034 50.9302 4.90001C51.2717 5.26634 51.6039 5.6414 51.942 6.01156C51.9508 6.02246 51.9727 6.02246 52.0683 6.05408Z" fill="#00B5B3"/>
<path d="M28.6911 66.682C27.3545 66.682 26.0053 66.682 24.6565 66.682C23.6784 66.682 23.3677 66.3343 23.3667 65.2402C23.3647 62.8717 23.3647 60.503 23.3667 58.1342C23.3667 57.2293 23.694 56.7604 24.3252 56.7414C24.9842 56.7206 25.3413 57.2053 25.3428 58.1374C25.3428 60.0455 25.357 61.9535 25.3341 63.8614C25.3286 64.3488 25.4658 64.4954 25.895 64.4807C26.8311 64.4491 27.7682 64.4709 28.7828 64.3172C28.418 63.9269 28.0423 63.548 27.6911 63.1424C27.2257 62.6054 27.1994 61.9431 27.6003 61.4868C28.0013 61.0305 28.6096 61.0376 29.0818 61.5544C30.0379 62.6 30.9836 63.657 31.9189 64.7255C32.4116 65.2903 32.4101 65.8654 31.9189 66.4301C30.9846 67.5004 30.0388 68.5577 29.0813 69.6018C28.6091 70.118 28.0004 70.1251 27.5999 69.6645C27.1994 69.2038 27.234 68.5535 27.6926 68.0067C28.0292 67.6049 28.3755 67.2114 28.7131 66.8124C28.7203 66.8058 28.7067 66.7714 28.6911 66.682Z" fill="#00B5B3"/>
<path d="M31.9224 28.8231C31.919 30.4471 31.8951 32.0655 31.4961 33.646C30.9922 35.6395 30.1639 37.3529 28.6249 38.5326C27.9214 39.0711 27.6005 39.9004 27.6005 40.8843C27.6005 42.7171 27.6005 44.5499 27.6005 46.3826C27.6005 46.9229 27.6063 47.4626 27.5165 47.9957C27.0039 50.0951 25.4341 51.3931 23.7546 51.1074C21.9629 50.8026 20.7107 49.093 20.7034 46.9239C20.6966 45.0459 20.7034 43.1679 20.7004 41.2894C20.6971 40.0159 19.9794 39.1143 18.9809 39.1115C17.9824 39.1088 17.2576 40.0039 17.2541 41.2774C17.2493 43.1559 17.2565 45.0339 17.2541 46.9119C17.2482 49.3373 15.7775 51.1341 13.8092 51.1308C11.8839 51.1276 10.3653 49.2659 10.358 46.8886C10.3521 44.8852 10.358 42.8818 10.3556 40.8784C10.3556 39.8927 10.0282 39.0647 9.32389 38.5244C7.51898 37.1376 6.66775 35.0731 6.27311 32.7154C5.7019 29.3033 6.08189 26.0766 7.86288 23.1824C7.74971 22.99 7.59312 23.0822 7.46678 23.081C6.3897 23.0712 5.31165 23.0942 4.23506 23.069C2.32921 23.0238 0.85262 21.239 0.864327 19.0263C0.876037 16.8577 2.36677 15.0822 4.25018 15.0674C7.42824 15.0429 10.6068 15.0598 13.7849 15.0593H14.3463C10.7595 10.8159 11.9765 5.51385 14.3741 3.05472C17.0571 0.304474 21.142 0.36662 23.7297 3.21499C26.2043 5.9407 26.9741 11.1348 23.6068 15.0446H30.8376C31.0478 14.9034 31.2766 14.8843 31.5141 14.8854C32.2136 14.8854 32.9132 14.8762 33.6117 14.8881C35.1171 14.9148 36.2493 15.72 36.8839 17.2802C37.5283 18.8611 37.358 20.4235 36.3697 21.782C35.6902 22.7153 34.7941 23.219 33.7322 23.2462C32.7644 23.2719 31.7956 23.2609 30.8273 23.2462C30.4473 23.2408 30.3746 23.3733 30.5834 23.7439C30.8222 24.1626 31.0273 24.6041 31.1966 25.0632C31.2854 25.308 31.4103 25.5538 31.28 25.8362C31.677 26.7788 31.741 27.8179 31.9224 28.8231Z" stroke="#00B5B3" stroke-width="2" stroke-miterlimit="10"/>
<path d="M60.559 48.2807V60.1043C60.559 60.1043 59.9249 62.7679 58.0912 63.1811C56.2576 63.5944 55.4249 62.9227 54.7776 62.2298C54.1303 61.537 53.699 60.5607 53.6952 59.286C53.6913 58.0115 53.6659 49.4528 53.6659 49.4528C53.6659 49.4528 53.422 47.8997 52.1649 47.794C50.9078 47.6882 50.4575 48.8123 50.4575 48.8123L50.2264 59.9332C50.2264 59.9332 50.1581 62.7771 47.2507 63.3082C44.3434 63.8391 43.4239 59.9337 43.4239 59.9337V42.2024L43.3844 37.2651V36.4512C43.3844 36.4512 43.4497 36.0968 42.5551 36.1104C41.6605 36.1241 36.8873 36.1104 36.8873 36.1104C36.8873 36.1104 34.0634 35.7632 33.9512 32.2721C33.839 28.781 37.2683 28.3558 37.2683 28.3558L45.0956 28.3389C45.0956 28.3389 47.3609 32.1396 51.9342 32.2247C56.5073 32.3097 58.8425 28.3542 58.8425 28.3542H61.8668L65.4459 28.3395L67.0366 28.3542C67.0366 28.3542 70.0034 28.8584 70.0001 32.211C69.9966 35.5637 66.8596 36.1639 66.8596 36.1639L61.2327 36.1094C61.2327 36.1094 60.519 35.8913 60.541 37.1413C60.5629 38.3913 60.559 48.2807 60.559 48.2807Z" fill="#00B1AD"/>
<path d="M51.9722 30.3036C55.7654 30.3036 58.8405 26.821 58.8405 22.5249C58.8405 18.2289 55.7654 14.7463 51.9722 14.7463C48.1789 14.7463 45.1039 18.2289 45.1039 22.5249C45.1039 26.821 48.1789 30.3036 51.9722 30.3036Z" fill="#00B5B3"/>
</g>
<path d="M2.624 85.808C2.98667 85.52 3.152 85.3867 3.12 85.408C4.16533 84.544 4.98667 83.8347 5.584 83.28C6.192 82.7253 6.704 82.144 7.12 81.536C7.536 80.928 7.744 80.336 7.744 79.76C7.744 79.3227 7.64267 78.9813 7.44 78.736C7.23733 78.4907 6.93333 78.368 6.528 78.368C6.12267 78.368 5.80267 78.5227 5.568 78.832C5.344 79.1307 5.232 79.5573 5.232 80.112H2.592C2.61333 79.2053 2.80533 78.448 3.168 77.84C3.54133 77.232 4.02667 76.784 4.624 76.496C5.232 76.208 5.904 76.064 6.64 76.064C7.90933 76.064 8.864 76.3893 9.504 77.04C10.1547 77.6907 10.48 78.5387 10.48 79.584C10.48 80.7253 10.0907 81.7867 9.312 82.768C8.53333 83.7387 7.54133 84.688 6.336 85.616H10.656V87.84H2.624V85.808ZM13.4126 88.128C12.9326 88.128 12.538 87.9893 12.2286 87.712C11.93 87.424 11.7806 87.072 11.7806 86.656C11.7806 86.2293 11.93 85.872 12.2286 85.584C12.538 85.296 12.9326 85.152 13.4126 85.152C13.882 85.152 14.266 85.296 14.5646 85.584C14.874 85.872 15.0286 86.2293 15.0286 86.656C15.0286 87.072 14.874 87.424 14.5646 87.712C14.266 87.9893 13.882 88.128 13.4126 88.128ZM22.1523 79.472C22.0669 79.0773 21.9176 78.784 21.7043 78.592C21.4909 78.3893 21.1869 78.288 20.7923 78.288C20.1843 78.288 19.7469 78.5547 19.4803 79.088C19.2136 79.6107 19.0749 80.4427 19.0643 81.584C19.2989 81.2107 19.6349 80.9173 20.0723 80.704C20.5203 80.4907 21.0109 80.384 21.5443 80.384C22.5896 80.384 23.4269 80.7147 24.0563 81.376C24.6963 82.0373 25.0163 82.96 25.0163 84.144C25.0163 84.9227 24.8563 85.6053 24.5363 86.192C24.2269 86.7787 23.7683 87.2373 23.1603 87.568C22.5629 87.8987 21.8536 88.064 21.0323 88.064C19.3896 88.064 18.2483 87.552 17.6083 86.528C16.9683 85.4933 16.6483 84.0107 16.6483 82.08C16.6483 80.0533 16.9843 78.5493 17.6562 77.568C18.3389 76.576 19.4269 76.08 20.9203 76.08C21.7203 76.08 22.3923 76.24 22.9363 76.56C23.4909 76.8693 23.9069 77.28 24.1843 77.792C24.4723 78.304 24.6429 78.864 24.6962 79.472H22.1523ZM20.8883 82.544C20.4296 82.544 20.0456 82.6827 19.7363 82.96C19.4376 83.2267 19.2883 83.6107 19.2883 84.112C19.2883 84.624 19.4269 85.024 19.7043 85.312C19.9923 85.6 20.3976 85.744 20.9203 85.744C21.3896 85.744 21.7576 85.6053 22.0243 85.328C22.3016 85.04 22.4403 84.6507 22.4403 84.16C22.4403 83.6587 22.3069 83.264 22.0403 82.976C21.7736 82.688 21.3896 82.544 20.8883 82.544ZM26.5638 82C26.5638 80.1653 26.9158 78.72 27.6198 77.664C28.3344 76.608 29.4811 76.08 31.0598 76.08C32.6384 76.08 33.7798 76.608 34.4838 77.664C35.1984 78.72 35.5558 80.1653 35.5558 82C35.5558 83.856 35.1984 85.312 34.4838 86.368C33.7798 87.424 32.6384 87.952 31.0598 87.952C29.4811 87.952 28.3344 87.424 27.6198 86.368C26.9158 85.312 26.5638 83.856 26.5638 82ZM32.8678 82C32.8678 80.9227 32.7504 80.096 32.5158 79.52C32.2811 78.9333 31.7958 78.64 31.0598 78.64C30.3238 78.64 29.8384 78.9333 29.6038 79.52C29.3691 80.096 29.2518 80.9227 29.2518 82C29.2518 82.7253 29.2944 83.328 29.3798 83.808C29.4651 84.2773 29.6358 84.6613 29.8918 84.96C30.1584 85.248 30.5478 85.392 31.0598 85.392C31.5718 85.392 31.9558 85.248 32.2118 84.96C32.4784 84.6613 32.6544 84.2773 32.7398 83.808C32.8251 83.328 32.8678 82.7253 32.8678 82ZM37.0013 82C37.0013 80.1653 37.3533 78.72 38.0573 77.664C38.7719 76.608 39.9186 76.08 41.4973 76.08C43.0759 76.08 44.2173 76.608 44.9213 77.664C45.6359 78.72 45.9933 80.1653 45.9933 82C45.9933 83.856 45.6359 85.312 44.9213 86.368C44.2173 87.424 43.0759 87.952 41.4973 87.952C39.9186 87.952 38.7719 87.424 38.0573 86.368C37.3533 85.312 37.0013 83.856 37.0013 82ZM43.3053 82C43.3053 80.9227 43.1879 80.096 42.9533 79.52C42.7186 78.9333 42.2333 78.64 41.4973 78.64C40.7613 78.64 40.2759 78.9333 40.0413 79.52C39.8066 80.096 39.6893 80.9227 39.6893 82C39.6893 82.7253 39.7319 83.328 39.8173 83.808C39.9026 84.2773 40.0733 84.6613 40.3293 84.96C40.5959 85.248 40.9853 85.392 41.4973 85.392C42.0093 85.392 42.3933 85.248 42.6493 84.96C42.9159 84.6613 43.0919 84.2773 43.1773 83.808C43.2626 83.328 43.3053 82.7253 43.3053 82ZM54.2228 88L50.4468 83.04V88H47.7108V76.768H50.4468V81.696L54.1908 76.768H57.4068L53.0548 82.272L57.5668 88H54.2228ZM62.259 78.944C62.8883 78.944 63.4377 79.072 63.907 79.328C64.387 79.584 64.755 79.92 65.011 80.336V79.072H67.747V87.984C67.747 88.8053 67.5817 89.5467 67.251 90.208C66.931 90.88 66.435 91.4133 65.763 91.808C65.1017 92.2027 64.275 92.4 63.283 92.4C61.9603 92.4 60.8883 92.0853 60.067 91.456C59.2457 90.8373 58.7763 89.9947 58.659 88.928H61.363C61.4483 89.2693 61.651 89.536 61.971 89.728C62.291 89.9307 62.6857 90.032 63.155 90.032C63.7203 90.032 64.1683 89.8667 64.499 89.536C64.8403 89.216 65.011 88.6987 65.011 87.984V86.72C64.7443 87.136 64.3763 87.4773 63.907 87.744C63.4377 88 62.8883 88.128 62.259 88.128C61.523 88.128 60.8563 87.9413 60.259 87.568C59.6617 87.184 59.187 86.6453 58.835 85.952C58.4937 85.248 58.323 84.4373 58.323 83.52C58.323 82.6027 58.4937 81.7973 58.835 81.104C59.187 80.4107 59.6617 79.8773 60.259 79.504C60.8563 79.1307 61.523 78.944 62.259 78.944ZM65.011 83.536C65.011 82.8533 64.819 82.3147 64.435 81.92C64.0617 81.5253 63.603 81.328 63.059 81.328C62.515 81.328 62.051 81.5253 61.667 81.92C61.2937 82.304 61.107 82.8373 61.107 83.52C61.107 84.2027 61.2937 84.7467 61.667 85.152C62.051 85.5467 62.515 85.744 63.059 85.744C63.603 85.744 64.0617 85.5467 64.435 85.152C64.819 84.7573 65.011 84.2187 65.011 83.536Z" fill="#00B1AD"/>
<defs>
<clipPath id="clip0_62_1261">
<rect width="70" height="70" fill="white"/>
</clipPath>
</defs>
</svg>
