<svg width="100" height="101" viewBox="0 0 100 101" fill="none" xmlns="http://www.w3.org/2000/svg">
<g clip-path="url(#clip0)">
<path d="M0 96.6882C0.906888 96.7165 1.81782 96.7671 2.72268 96.7691C6.59261 96.7691 10.4646 96.7691 14.4153 96.7691V70.9635H11.3694V61.3035H17.754C17.754 59.4334 17.754 57.6846 17.754 55.9358C17.754 52.0945 19.4325 49.8705 23.1246 48.8172C24.8435 48.33 26.5583 47.8245 28.2872 47.3696C28.8508 47.222 29.0406 46.9653 29.0689 46.3587C29.1295 45.081 28.9275 44.0176 27.958 43.0229C26.7754 41.7806 26.0614 40.1652 25.9382 38.4537C25.708 35.8618 25.4676 33.2477 26.3563 30.7185C27.5965 27.2006 30.099 25.0374 33.7245 24.3338C37.2975 23.6383 40.3333 24.8089 42.749 27.518C44.3413 29.2812 45.196 31.5894 45.1364 33.9654C45.1364 35.3988 45.2091 36.8444 45.0596 38.2616C44.8298 40.3544 43.8918 42.3055 42.4016 43.7911C42.0239 44.1793 41.7088 46.6216 42.0239 47.0259C42.1612 47.2038 42.4541 47.2847 42.6924 47.3535C44.3769 47.8427 46.0554 48.3643 47.756 48.7889C50.8625 49.5754 52.7106 51.49 53.2196 54.8238H55.706C57.6268 54.8238 59.5436 54.838 61.4664 54.8076C61.8239 54.8076 62.2743 54.7167 62.5167 54.4882C65.2535 51.7932 67.958 49.0639 70.6666 46.3406C70.711 46.2981 70.7211 46.2253 70.713 46.2476C69.689 45.542 68.6104 44.9314 67.6833 44.1368C66.7844 43.3785 66.048 42.446 65.5187 41.3952C64.9893 40.3445 64.6779 39.1974 64.6032 38.0231C64.4173 35.597 64.2174 33.1345 65.0455 30.767C66.2917 27.2107 68.8124 25.0252 72.4824 24.3318C76.0594 23.6545 79.0871 24.8433 81.4907 27.5666C83.0089 29.2561 83.8416 31.4525 83.8255 33.7248C83.8255 35.32 83.8882 36.9273 83.7145 38.5083C83.4721 40.71 82.3713 42.5518 80.7292 44.1833C83.6761 45.827 84.0699 48.522 83.8215 51.5546H90.2445C90.2707 51.959 90.3091 52.2805 90.3091 52.5938C90.3091 59.0776 90.3273 65.5593 90.3091 72.0431C90.2929 77.2188 87.948 80.9206 83.1873 83.0172C82.4804 83.3265 81.7108 83.4902 80.8322 83.7632C80.9898 85.4675 81.1433 87.2002 81.3149 88.9409C81.5432 91.2416 81.834 93.5363 81.9997 95.8411C82.0582 96.6498 82.3572 96.7893 83.0681 96.7873C88.3075 96.763 93.5489 96.7752 98.7882 96.7752H100V100.01H0V96.6882ZM17.8065 77.3947V96.763C18.9861 96.763 20.1172 96.7974 21.2402 96.7347C21.4684 96.7226 21.7512 96.387 21.8825 96.1282C22.7631 94.4239 23.6296 92.7094 24.4557 90.9788C24.7021 90.4592 25.0172 90.2934 25.5827 90.2934C34.3352 90.3123 43.0876 90.3123 51.8401 90.2934C52.4117 90.2934 52.7106 90.4815 52.955 90.997C53.7629 92.6993 54.6133 94.3834 55.4818 96.0514C55.6272 96.3304 55.9322 96.7044 56.1826 96.7206C57.3077 96.7934 58.4408 96.7529 59.592 96.7529V77.3441H25.8534V74.1983H59.6143V70.9978H17.8247V74.2326H22.5227V77.3967L17.8065 77.3947ZM49.7859 54.7611C49.6425 53.3965 48.9376 52.5372 47.5096 52.1066C45.5545 51.5001 43.5912 50.936 41.6118 50.4225C41.3048 50.3436 40.8504 50.564 40.5494 50.7702C39.6708 51.3767 38.9134 52.1976 37.9701 52.6403C35.4434 53.8291 32.6258 53.0892 30.5191 50.9077C30.2525 50.6327 29.7294 50.3335 29.4183 50.4124C27.3743 50.9299 25.3484 51.5223 23.3327 52.141C22.2117 52.4867 21.2301 53.2287 21.1493 54.4033C20.9958 56.6555 21.1048 58.9239 21.1048 61.2045H43.7266C43.2236 56.8213 44.7062 55.2545 49.7859 54.7611ZM62.9449 74.1983H75.0859C78.6892 74.1983 80.6423 72.2513 80.6444 68.6587C80.6444 62.6365 80.6444 56.6131 80.6444 50.5883V49.9534C79.9415 50.8693 79.2568 51.9752 78.3721 52.8769C75.1364 56.2047 71.826 59.486 68.5115 62.7531C68.2485 62.9841 68.0414 63.272 67.906 63.595C67.7706 63.9179 67.7103 64.2675 67.7298 64.6172C67.7843 66.6895 67.748 68.7638 67.748 70.9412H62.9449V74.1983ZM67.7924 35.7183C67.7924 36.2035 67.7419 36.9556 67.7924 37.6976C68.0348 40.7464 70.501 43.1563 73.6862 43.4798C76.5341 43.775 79.6022 41.8846 80.2182 39.0319C80.6424 37.0708 80.6464 34.9621 80.4889 32.9485C80.2768 30.2312 78.2105 28.1347 75.5989 27.5302C73.1146 26.956 70.4525 27.9932 68.9154 30.1322C67.7641 31.7415 67.6631 33.5611 67.7864 35.7122L67.7924 35.7183ZM29.0851 35.5949C29.0851 36.1206 29.0507 36.808 29.0851 37.4873C29.2729 40.6372 31.6381 43.0633 34.8738 43.4676C37.7964 43.8194 40.9029 41.9048 41.5391 38.9551C41.9552 37.0263 41.9431 34.948 41.7754 32.9667C41.5391 30.2474 39.8768 28.4521 37.2672 27.6838C34.696 26.9297 32.4601 27.6313 30.6443 29.5984C29.1113 31.2583 28.9295 33.3104 29.0851 35.5949ZM14.5425 67.6721H64.4072V64.5505H14.5425V67.6721ZM87.0936 54.8865H83.8478C83.8478 55.3272 83.8478 55.7114 83.8478 56.0996C83.8276 60.7496 83.8962 65.4158 83.7569 70.0678C83.6458 73.8202 80.3232 77.1763 76.5826 77.3077C72.4238 77.4553 68.257 77.3785 64.0921 77.3987H62.9671V80.6335C68.4408 80.6335 73.8397 80.6335 79.2366 80.6194C79.8527 80.6063 80.4642 80.5097 81.0544 80.3323C84.8314 79.2527 87.0734 76.2443 87.0875 72.2129C87.1097 66.7097 87.0875 61.2065 87.0875 55.7033L87.0936 54.8865ZM56.7563 61.2833C59.3577 61.2833 61.9613 61.3116 64.5607 61.257C65.0897 61.237 65.5955 61.035 65.9928 60.6849C69.4951 57.2479 72.957 53.7523 76.425 50.2729C76.6873 50.0335 76.918 49.7618 77.1117 49.4642C77.55 48.6999 77.4693 47.9357 76.8593 47.313C76.2493 46.6903 75.4818 46.5993 74.7203 47.032C74.3642 47.2577 74.0396 47.5296 73.7549 47.8407C70.5515 51.033 67.3683 54.2456 64.1406 57.4117C63.7523 57.7668 63.2522 57.9749 62.7268 58C58.2085 58.0445 53.6862 58.0222 49.1659 58.0323C48.7449 58.0242 48.3247 58.0704 47.9156 58.1698C47.5939 58.2432 47.308 58.4268 47.1073 58.689C46.9066 58.9511 46.8039 59.2753 46.8168 59.6053C46.7946 60.3675 47.1562 60.9295 47.9055 61.1458C48.2811 61.2445 48.6685 61.2907 49.0568 61.2833C51.624 61.2874 54.1931 61.2833 56.7563 61.2833ZM71.117 83.9391H62.9469V96.7064H72.3935C71.9653 92.4102 71.5452 88.1888 71.1231 83.9391H71.117ZM25.2474 96.6862H52.1653C51.6926 95.734 51.3109 94.8666 50.8403 94.0579C50.7492 93.9228 50.6297 93.8091 50.4901 93.7249C50.3506 93.6408 50.1943 93.5881 50.0324 93.5707C42.4824 93.5451 34.931 93.5451 27.3783 93.5707C27.2304 93.5762 27.0856 93.6142 26.954 93.682C26.8224 93.7498 26.7073 93.8457 26.6169 93.9629C26.1362 94.808 25.7362 95.6956 25.2474 96.6862ZM77.5702 83.933H74.3689C74.785 88.1302 75.1869 92.2384 75.6131 96.3445C75.644 96.4426 75.6994 96.5311 75.7739 96.6018C75.8485 96.6726 75.9398 96.7232 76.0392 96.7489C76.9623 96.7853 77.8874 96.7671 78.8528 96.7671C78.4145 92.3738 77.9944 88.1706 77.5702 83.933ZM32.3531 46.2112C32.0784 47.9155 32.3349 48.4877 33.7185 49.3752C35.0031 50.2001 36.118 50.1556 37.4248 49.264C38.5013 48.5301 38.9821 47.5839 38.564 46.2132C36.5445 46.8635 34.3721 46.8628 32.3531 46.2112Z" fill="#00B5B3"/>
<path d="M50.0162 25.9371V16.0972H38.7417V0H77.3198V16.083H76.1988C71.7431 16.083 67.2875 16.0588 62.8318 16.1113C62.2032 16.1361 61.5983 16.3582 61.1029 16.7462C57.7662 19.4594 54.484 22.2393 51.1857 24.9808C50.8463 25.2719 50.4949 25.5408 50.0162 25.9371ZM74.1427 12.8321V3.2348H41.9976V12.826H53.2418V19.0045C53.664 18.679 53.9184 18.497 54.1588 18.2969C56.1079 16.6795 58.0348 15.0196 60.0162 13.4447C60.4894 13.0847 61.0624 12.8806 61.6563 12.8604C65.7928 12.8098 69.9233 12.8321 74.1427 12.8321Z" fill="#00B5B3"/>
<path d="M64.4315 6.43115V9.54263H51.6603V6.43115H64.4315Z" fill="#00B5B3"/>
<path d="M48.3357 9.55679H45.1869V6.44531H48.3357V9.55679Z" fill="#00B5B3"/>
<path d="M67.7904 6.43115H70.8948V9.54263H67.7904V6.43115Z" fill="#00B5B3"/>
</g>
<defs>
<clipPath id="clip0">
<rect width="99.99" height="100.01" fill="white"/>
</clipPath>
</defs>
</svg>
