<svg width="70" height="70" viewBox="0 0 70 70" fill="none" xmlns="http://www.w3.org/2000/svg">
<path d="M0.0402319 42.9982H4.50786V18.0603H9.02263V13.5593H11.2687V17.9982H13.5317V9.05842H15.7948V18.0095H18.0578C18.0578 17.2749 18.0578 16.5311 18.0578 15.7872C18.0578 14.4954 17.7391 13.0603 18.1936 11.9473C18.6481 10.8343 19.8909 10.1017 20.7811 9.20149C21.4618 8.51791 22.1238 7.81169 22.8404 7.16762C23.1088 6.93011 23.4482 6.78777 23.806 6.76273C25.6164 6.72317 27.4287 6.74389 29.3184 6.74389V2.27119H31.5814V6.68739H33.867V0H36.1301V6.69869H38.3724V4.53485H40.6354V6.74389C42.5213 6.74389 44.3261 6.75895 46.1308 6.73259C46.338 6.72307 46.5447 6.76008 46.7357 6.84091C46.9266 6.92175 47.0969 7.04433 47.2341 7.19964C48.6334 8.62964 50.0485 10.044 51.4792 11.4426C51.6408 11.5904 51.7671 11.7725 51.8487 11.9756C51.9303 12.1787 51.9652 12.3975 51.9507 12.6158C51.9318 15.6516 51.9412 18.6893 51.9412 21.7269V22.5273H54.1685V18.0923H56.4315V22.5123H58.6945V13.5593H60.9406V22.5574H65.4837V23.4633C65.4837 31.0452 65.4837 38.6266 65.4837 46.2072C65.4654 46.4119 65.5018 46.6177 65.5893 46.8036C65.6768 46.9896 65.8122 47.149 65.9815 47.2657C67.6765 48.5512 68.9249 50.3354 69.5506 52.367C70.1764 54.3986 70.148 56.575 69.4694 58.5896C68.7908 60.6042 67.4963 62.3553 65.7683 63.5963C64.0403 64.8372 61.9658 65.5054 59.8373 65.5067C47.9036 65.5218 35.9705 65.5218 24.0379 65.5067C23.5273 65.4833 23.0283 65.6627 22.6499 66.0058C20.4551 67.9065 17.8411 69.2617 15.0216 69.9606C14.7497 70.0199 14.4675 70.0122 14.1994 69.938C10.1624 68.8834 6.58559 66.5309 4.02104 63.244C1.45649 59.9569 0.0469322 55.9182 0.010058 51.7515C-0.0125725 49.0434 0.010058 46.3371 0.010058 43.629C-0.00125725 43.4445 0.0251449 43.2619 0.0402319 42.9982ZM25.3316 63.2544H59.3338C59.6639 63.2544 59.9939 63.2544 60.322 63.2412C64.3201 63.0528 67.6448 59.6893 67.7844 55.6875C67.9447 51.1037 64.4011 47.4445 59.7393 47.437C49.8372 47.4219 39.9333 47.4219 30.0274 47.437C29.8257 47.437 29.622 47.4615 29.3032 47.4841C29.7616 53.1526 29.0713 58.5198 25.3316 63.2544ZM20.3416 13.5593V40.9454C20.3416 42.0302 20.3227 42.1225 21.4033 42.3334C22.9649 42.6366 24.549 42.84 26.1331 42.9868C27.1949 43.0829 28.2717 43.0038 29.407 43.0038V45.115H49.6782V13.5593H20.3416ZM2.30893 45.2675C2.29007 45.5123 2.26556 45.695 2.26556 45.8777C2.26556 47.9002 2.24481 49.9248 2.26556 51.9493C2.36174 59.0886 7.32345 65.599 14.1804 67.5802C14.4916 67.6695 14.8207 67.6754 15.1347 67.5971C21.4147 65.8589 26.4066 59.9832 26.9572 53.4728C27.1817 50.808 27.061 48.1131 27.0949 45.4332C27.0949 45.3937 27.0497 45.3541 26.9837 45.2449C22.4066 45.4708 18.2502 44.2242 14.6859 41.1563C13.0047 42.6178 11.0523 43.7351 8.93962 44.4445C6.7973 45.1545 4.57952 45.3108 2.30893 45.2675ZM52.0261 24.8588V45.113C55.7884 45.4106 59.5488 44.7044 63.2376 45.6781V24.8588H52.0261ZM9.09619 38.3974V31.6384H15.7891V38.339L15.0348 38.4671L18.022 40.8852V20.339H6.81428V42.5971C9.14147 42.3579 13.0376 40.1357 14.1522 38.3974H9.09619ZM48.1016 11.2298C47.3473 10.4878 46.7324 9.84561 46.0724 9.24296C45.876 9.09141 45.6341 9.01046 45.3859 9.01318C38.49 9.00189 31.5934 9.00189 24.6961 9.01318C24.4943 9.01318 24.2322 9.01318 24.1039 9.13752C23.4061 9.78156 22.7385 10.4558 21.9597 11.2335L48.1016 11.2298ZM13.5223 36.0886V33.9135H11.3554V36.0961L13.5223 36.0886Z" fill="#00B5B3"/>
<path d="M55.2793 60.1395L52.4015 57.2619L54.0988 55.7383L55.2586 57.2092L61.3104 51.1357L62.7644 52.6611L55.2793 60.1395Z" fill="#00B5B3"/>
<path d="M34.9289 57.307L41.0278 51.1921L42.3668 52.6893L34.993 60.0754L32.1077 57.1657L33.6824 55.678L34.9289 57.307Z" fill="#00B5B3"/>
<path d="M51.1304 51.1169L52.5354 52.6895L45.1617 60.0755L42.28 57.1603L43.8227 55.633L45.0522 57.2111L51.1304 51.1169Z" fill="#00B5B3"/>
<path d="M22.6519 15.8193H29.3429V22.5124H22.6519V15.8193ZM24.9017 18.0792V20.2563H27.0666V18.0792H24.9017Z" fill="#00B5B3"/>
<path d="M38.4045 15.8438V22.5123H31.6814V15.8438H38.4045ZM33.9444 20.2655H36.1207V18.0999H33.9444V20.2655Z" fill="#00B5B3"/>
<path d="M40.7091 22.5162V15.8193H47.402V22.5124L40.7091 22.5162ZM45.1598 20.2751V18.0905H42.9967V20.2751H45.1598Z" fill="#00B5B3"/>
<path d="M40.7336 33.8983H47.4266V40.5914H40.7336V33.8983ZM42.9873 36.1394V38.3372H45.1484V36.1413L42.9873 36.1394Z" fill="#00B5B3"/>
<path d="M31.6907 33.8983H38.3817V40.5914H31.6907V33.8983ZM33.9292 38.3522H36.1168V36.177H33.9292V38.3522Z" fill="#00B5B3"/>
<path d="M22.6519 24.8588H29.3429V31.5518H22.6519V24.8588ZM27.0723 29.3164V27.1432H24.8923V29.3164H27.0723Z" fill="#00B5B3"/>
<path d="M31.6814 31.5574V24.8588H38.3724V31.5518L31.6814 31.5574ZM33.9444 27.1187V29.3032H36.1169V27.1187H33.9444Z" fill="#00B5B3"/>
<path d="M40.7109 31.5594V24.8588H47.402V31.5537L40.7109 31.5594ZM42.974 27.1149V29.3089H45.1541V27.1187L42.974 27.1149Z" fill="#00B5B3"/>
<path d="M22.6293 40.5989V33.8983H29.3241V40.5914L22.6293 40.5989ZM24.8924 36.1582V38.3409H27.0611V36.1582H24.8924Z" fill="#00B5B3"/>
<path d="M4.52478 47.6178C5.87884 47.3806 7.165 47.2149 8.41721 46.9248C10.5219 46.4408 12.4473 45.5218 14.2634 44.3579C14.3815 44.2907 14.5135 44.2514 14.6492 44.2433C14.7849 44.2352 14.9207 44.2583 15.046 44.3108C17.8245 46.1502 21.0316 47.2413 24.3566 47.4785C24.4936 47.495 24.6297 47.5196 24.7639 47.5519C25.5032 54.6537 23.7172 61.7742 15.361 65.132C14.9335 65.2804 14.4683 65.2804 14.0409 65.132C11.2527 64.121 8.84378 62.2773 7.14151 59.8513C5.43929 57.4254 4.52632 54.5348 4.52666 51.5727C4.52478 50.2638 4.52478 48.9474 4.52478 47.6178ZM6.81045 49.7685C6.38236 55.3354 9.42805 61.1207 13.5109 62.3561V47.5896L6.81045 49.7685ZM15.84 62.422C20.0021 60.4277 23.2137 55.7233 22.5462 49.7648L15.84 47.5727V62.422Z" fill="#00B5B3"/>
<path d="M60.9746 42.8758H54.2911V36.1771H60.9746V42.8758ZM56.5296 40.6027H58.7021V38.4181H56.5296V40.6027Z" fill="#00B5B3"/>
<path d="M54.2495 33.825V27.1432H60.9669V33.825H54.2495ZM56.5446 29.3787V31.5519H58.719V29.3787H56.5446Z" fill="#00B5B3"/>
<path d="M15.7703 29.3183H9.08301V22.6252H15.7703V29.3183ZM13.5072 27.0584V24.8833H11.3423V27.0565L13.5072 27.0584Z" fill="#00B5B3"/>
</svg>
