<svg width="71" height="87" viewBox="0 0 71 87" fill="none" xmlns="http://www.w3.org/2000/svg">
<path d="M0.448242 3.50357C0.613221 2.99296 0.796198 2.49734 0.996313 2.01903C2.11255 -0.307234 3.78417 -0.641617 5.47039 1.11101C7.46537 -0.347591 8.23084 -0.33606 9.58275 1.09659C10.2204 0.730504 10.7922 0.211634 11.3986 0.0847999C13.3023 -0.310117 14.8807 1.98443 14.8807 5.0227C14.8807 9.95772 14.8515 14.8956 14.8698 19.8306C14.9217 23.754 14.1167 27.586 12.5898 30.6837C11.4042 33.1051 10.9603 35.8089 11.0534 38.8645C11.2854 46.3824 11.4389 53.9088 11.6307 61.4325C11.6527 62.3261 11.5631 63.2052 10.9566 63.4214C10.5696 63.5043 10.1772 63.3495 9.86048 62.989C9.66133 62.7642 9.59736 62.1012 9.58275 61.6255C9.44021 56.7251 9.32148 51.8246 9.19362 46.9415C9.19362 46.6244 9.17352 46.3045 9.16073 45.9067H6.09702C6.05317 47.0079 5.99654 48.1436 5.96366 49.2793C5.66404 59.3166 5.36869 69.3558 5.0776 79.3968C5.00819 81.8297 6.06961 83.7035 7.48364 83.7207C8.95429 83.7438 10.0413 81.9364 10.0084 79.4372C9.96277 76.5546 9.86406 73.6719 9.791 70.7894C9.75618 70.2883 9.75618 69.7828 9.791 69.2817C9.81778 68.8982 9.9366 68.5456 10.1232 68.2962C10.3098 68.0468 10.5499 67.9198 10.794 67.9414C11.342 67.9414 11.7531 68.4371 11.7805 69.2904C11.8956 72.9975 12.1021 76.7131 12.007 80.4085C11.9047 84.4443 9.6412 87.2288 7.07441 86.9406C4.81819 86.7014 2.92004 83.3085 3.02417 79.5294C3.31465 69.129 3.63983 58.7343 3.95224 48.3339C4.05454 44.9179 4.16416 41.4992 4.26098 38.0804C4.32493 35.9041 4.08925 33.7565 3.28359 32.0096C1.87323 28.9339 0.766123 25.6967 0.448242 21.8801V3.50357ZM9.03468 42.5312C9.03468 41.3781 9.084 40.3289 9.03468 39.2969C8.78862 35.4197 9.51459 31.5445 11.057 28.5015C12.1969 26.2163 12.8137 23.3901 12.8072 20.4822C12.8218 15.3338 12.828 10.1835 12.8255 5.03135C12.8246 4.67853 12.7614 4.33308 12.6428 4.03397C12.5286 3.71468 12.3456 3.47069 12.1269 3.34636C11.9083 3.22204 11.6688 3.22566 11.4517 3.35655C10.9255 3.64482 10.7008 4.33087 10.7027 5.21872C10.7027 10.0096 10.7027 14.8005 10.7027 19.5914C10.7027 20.5629 10.7227 21.5371 10.7027 22.5086C10.7051 22.7256 10.6792 22.941 10.6265 23.1414C10.5738 23.3418 10.4954 23.523 10.3962 23.6734C10.2971 23.8239 10.1794 23.9404 10.0504 24.0158C9.92147 24.0911 9.784 24.1237 9.64671 24.1114C9.09862 24.0854 8.704 23.4628 8.66564 22.5028C8.64737 22.0359 8.66564 21.566 8.66564 21.099C8.66564 15.8046 8.66564 10.5093 8.66564 5.21296C8.66564 3.82354 8.09017 2.99623 7.33748 3.31909C6.69807 3.60734 6.5574 4.38276 6.55922 5.33691C6.56775 10.7754 6.56775 16.2149 6.55922 21.6554C6.55922 23.3474 6.25231 24.0911 5.55443 24.1171C4.82367 24.143 4.50944 23.3993 4.50944 21.6236C4.50944 16.2217 4.50944 10.8187 4.50944 5.41474C4.50944 4.00227 4.17147 3.2989 3.51012 3.28161C2.80312 3.26431 2.5163 3.85813 2.5163 5.33403C2.5163 10.1624 2.53457 14.9879 2.5163 19.8163C2.5035 23.062 3.06436 26.0023 4.3231 28.5736C5.92163 31.8425 6.53547 35.5236 6.28519 39.6168C6.22856 40.5624 6.28519 41.528 6.28519 42.534L9.03468 42.5312Z" fill="#00B5B3"/>
<path d="M13.2804 45.0245C13.3094 36.3711 15.3097 28.0225 18.9163 21.5032C22.5228 14.9838 27.4949 10.7284 32.925 9.5137C36.436 8.73613 40.0138 9.27635 43.3676 11.0905C43.5637 11.1844 43.7554 11.3 43.9413 11.4364C44.4893 11.8572 44.6976 12.6615 44.4893 13.4917C44.2811 14.3219 43.7841 14.6679 43.2105 14.4343C41.8239 13.878 40.4537 13.1458 39.0451 12.8028C34.8218 11.7956 30.5046 12.8928 26.6953 15.9415C22.886 18.9902 19.7745 23.8384 17.7946 29.8102C11.4096 49.1582 18.4615 72.562 31.997 76.935C43.4754 80.6449 54.9008 67.9412 56.3806 49.5992C57.453 36.2931 54.3582 25.7197 47.48 17.8905C46.7894 17.1065 46.5866 16.2186 46.9465 15.3654C47.3064 14.5121 47.9331 14.4257 48.6236 15.2011C55.6864 23.1311 59.1685 33.938 58.5656 47.616C57.8203 64.4792 49.9317 77.7479 39.3831 80.4028C27.3987 83.4237 15.6664 70.0484 13.7133 51.1356C13.5051 49.1149 13.4193 47.0625 13.2804 45.0245Z" fill="#00B5B3"/>
<path d="M67.6651 52.848H64.8736C64.733 55.9613 64.5923 59.037 64.4534 62.1157C64.3694 63.9836 64.2927 65.863 64.1976 67.7194C64.1374 68.9359 63.7482 69.5412 63.1015 69.4836C62.4548 69.4259 62.0985 68.6591 62.1552 67.3995C62.3726 62.4414 62.6065 57.4832 62.7964 52.5223C62.8198 51.7024 62.7505 50.8826 62.5918 50.101C61.252 43.3609 60.5213 36.3563 60.4215 29.2943C60.3174 21.9177 61.5067 15.0456 63.4139 8.42422C63.8486 6.92087 64.3852 5.49625 65.0143 4.17526C65.4789 3.19936 66.0597 2.37589 66.7242 1.75098C68.5511 0.06466 70.4913 1.92106 70.4474 5.2793C70.3579 11.8343 70.2283 18.3894 70.1149 24.9444C69.9651 33.624 69.7258 42.3035 69.6948 50.9859C69.6747 56.4628 69.967 61.9254 70.1168 67.3966C70.2301 71.5706 70.3854 75.7562 70.442 79.9215C70.4573 81.5786 70.098 83.1901 69.4284 84.467C68.7588 85.7439 67.8228 86.6024 66.7882 86.8888C64.7787 87.4883 62.6649 85.6117 61.9104 82.4841C61.3057 79.9791 61.7277 77.4194 61.9104 74.9057C61.9725 74.09 62.5151 73.7527 63.054 73.9516C63.6368 74.1476 63.8779 74.8163 63.8542 75.7013C63.8213 76.961 63.7555 78.2178 63.6843 79.4746C63.56 81.7059 64.5429 83.6256 65.8766 83.7294C66.2104 83.7708 66.5461 83.6992 66.861 83.5194C67.1759 83.3395 67.4629 83.0556 67.7026 82.6866C67.9423 82.3176 68.1294 81.872 68.2511 81.3797C68.3729 80.8874 68.4266 80.3598 68.4087 79.8321C68.2844 74.1073 68.1073 68.3853 67.9519 62.6633L67.7327 54.6727C67.7071 54.102 67.6871 53.5313 67.6651 52.848ZM67.6322 49.5561C67.656 48.7807 67.6871 48.1148 67.6999 47.423C67.8314 39.6457 67.9623 31.8674 68.0926 24.0883C68.1949 18.0031 68.3046 11.9179 68.3922 5.82987C68.3922 5.36001 68.2606 4.88438 68.1913 4.41162C67.888 4.61053 67.4898 4.6826 67.2997 5.03427C66.7133 6.12102 66.0958 7.22793 65.6866 8.4934C64.3089 12.724 63.339 17.2555 62.8092 21.9379C62.316 26.2272 62.431 30.5482 62.6795 34.8606C62.9661 39.6276 63.5861 44.3298 64.5283 48.8816C64.5831 49.1526 64.7933 49.5244 64.9376 49.5359C65.8199 49.582 66.7042 49.5561 67.6322 49.5561Z" fill="#00B5B3"/>
<path d="M36.1863 72.8186C27.7826 72.8735 20.4951 63.577 18.8015 50.8734C18.751 50.5591 18.7156 50.2391 18.6955 49.9164C18.6681 49.0083 18.9276 48.3684 19.4976 48.1695C20.0675 47.9706 20.4914 48.3857 20.6687 49.2475C20.8458 50.1095 20.9372 51.0694 21.1034 51.9659C23.113 62.793 29.7228 70.2128 36.7581 69.5267C44.1607 68.8061 50.1438 60.4407 51.3387 49.1438C52.7891 35.4341 46.8445 22.4941 38.2343 20.606C29.5199 18.7035 21.7082 28.1613 20.5681 41.9921C20.4585 43.3123 20.0201 44.0099 19.3825 43.8687C18.7449 43.7274 18.4251 42.8684 18.5348 41.5625C19.5944 28.9281 25.6816 19.1618 33.6086 17.3833C43.4628 15.1695 52.6704 26.7114 53.5346 42.3754C54.3749 57.5869 47.5825 70.8296 38.0059 72.6428C37.3519 72.761 36.6796 72.7697 36.1863 72.8186Z" fill="#00B5B3"/>
</svg>
