<svg width="301" height="72" viewBox="0 0 301 72" fill="none" xmlns="http://www.w3.org/2000/svg">
<path fill-rule="evenodd" clip-rule="evenodd" d="M74.7165 2.06722C70.2452 5.96007 68.3813 10.8565 68.203 19.1769L68.0504 26.3151L64.1356 30.2621C59.2957 35.142 49.5131 41.752 44.16 43.7605C36.2003 46.7474 25.2604 46.9972 17.5978 44.3684C12.8639 42.7444 7.75095 38.27 6.4179 34.5835C3.26115 25.8549 7.13823 18.7536 16.2487 16.579C24.4534 14.6208 34.1597 17.4349 45.7661 25.1382L52.1904 29.4023L57.4102 27.0648C64.4014 23.9342 64.9306 23.499 63.5831 21.9864C62.5801 20.8603 62.3561 20.8517 60.0016 21.8519C56.1711 23.4779 55.0492 23.2082 48.9782 19.1974C40.3737 13.5137 36.087 12.0941 26.6931 11.8165C19.3926 11.6009 18.5229 11.7169 13.8444 13.5275C5.74174 16.6634 1.91204 20.5932 0.444887 27.2778C-2.00439 38.4414 5.81482 47.9072 20.0688 51.0338C33.2322 53.9205 47.165 49.3043 61.545 37.2908L69.2935 30.8172L70.1151 32.7538C72.0311 37.2664 73.0108 44.644 72.0729 47.497C71.3132 49.8068 71.363 50.4503 72.3636 51.2706C73.4348 52.1495 73.6749 52.1429 74.5237 51.2106C78.2635 47.1014 97.1687 28.3097 97.3847 28.4864C97.5325 28.6084 96.8997 31.9177 95.9778 35.8402C94.1589 43.5772 93.0009 52.5893 93.8248 52.5893C95.5698 52.5893 108.805 47.6929 108.805 47.0474C108.805 45.5322 107.056 44.6934 105.407 45.4181C102.001 46.9148 101.71 45.9251 103.22 37.9746C106.225 22.1407 109.145 15.4212 114.918 11.0516C117.641 8.99048 119.039 8.41223 121.298 8.41223C124.094 8.41223 124.173 8.47816 123.661 10.3903C123.182 12.1831 123.323 12.3684 125.172 12.3684C126.93 12.3684 127.38 11.9055 128.424 9.0195C129.09 7.17791 129.877 4.61168 130.173 3.31604L130.711 0.960814L127.442 1.32082C122.746 1.83842 117.127 4.33211 112.948 7.75287C109.193 10.8275 99.5979 20.1739 87.9048 32.1491C84.1867 35.9569 80.773 39.286 80.3193 39.5472C79.8158 39.8366 79.2368 38.9359 78.8345 37.2394C78.4715 35.709 77.4621 31.9889 76.5908 28.9724L75.0064 23.4878L77.291 20.4007C81.564 14.6254 83.4086 10.3125 83.46 5.97392C83.513 1.53709 83.052 0.826305 79.6753 0.141231C77.8002 -0.238559 77.0156 0.0660627 74.7165 2.06722ZM77.695 6.59899C78.1037 7.58275 76.178 14.7058 75.0891 16.2368C73.9415 17.8496 74.0524 9.53314 75.2063 7.45418C76.2198 5.62644 77.1569 5.30467 77.695 6.59899ZM264.502 6.68471C260.008 8.00343 256.982 10.0672 253.834 13.9607C249.749 19.0147 248.698 23.1825 250.468 27.3062C255.564 39.1733 255.381 38.4164 253.84 41.2226C251.632 45.2427 246.115 47.203 242.814 45.1398C242.099 44.6921 240.564 43.1782 239.406 41.7764L237.298 39.2267L236.091 41.6011C234.085 45.542 234.801 49.0525 238.024 51.0846C239.997 52.3282 245.041 52.0743 248.685 50.5479C253.181 48.6648 259.426 43.167 261.06 39.654C262.842 35.8218 262.178 29.8849 259.343 24.2955C257.811 21.2763 257.329 19.4123 257.653 17.7725C258.257 14.717 261.031 12.3684 264.034 12.3684C266.324 12.3684 266.389 12.4534 265.928 14.841C265.391 17.6096 266.275 19.3325 267.958 18.8024C268.572 18.6092 270.776 15.8379 272.855 12.6453C275.66 8.33838 276.378 6.70515 275.635 6.31745C274.106 5.52028 267.757 5.7293 264.502 6.68471ZM288.927 6.85944C281.812 8.92917 274.831 17.1771 274.865 23.4733C274.876 25.3498 275.849 28.5108 277.368 31.5999C278.734 34.3798 279.852 37.4359 279.852 38.3906C279.852 42.3053 275.464 45.9957 270.808 45.9957C268.56 45.9957 265.92 44.1218 264.102 41.2364L262.791 39.1535L261.557 41.0874C259.582 44.1818 259.833 48.225 262.124 50.2281C267.245 54.7038 278.609 50.4239 284.744 41.7099C288.002 37.0818 287.979 31.9052 284.671 25.121C281.927 19.4947 281.781 18.3409 283.474 15.652C284.879 13.4227 286.921 12.3684 289.837 12.3684C292.116 12.3684 292.283 12.7712 291.078 15.3731C290.22 17.2239 291.157 18.9686 293 18.9554C293.498 18.9521 295.666 16.2474 297.818 12.9447C300.932 8.16497 301.505 6.82383 300.629 6.36755C298.954 5.4972 292.71 5.75963 288.927 6.85944ZM190.737 21.9614C187.362 23.9177 187.003 23.9428 186.467 22.2588C185.225 18.36 166.012 22.9221 157.108 29.2295C151.367 33.2971 145.785 39.2597 144.754 42.4253C144 44.7396 143.515 45.2625 142.396 44.971C141.621 44.7693 140.256 44.9255 139.362 45.3179C137.499 46.1368 137.543 45.9891 141.234 39.1674L143.323 35.3055L141.369 35.7084L139.416 36.1106L140.696 33.0261C141.68 30.6524 141.778 29.5117 141.119 28.0783L140.263 26.2149H146.539C152.737 26.2149 152.825 26.1912 153.624 24.3094C154.708 21.7557 153.583 20.9381 148.997 20.9473C140.153 20.9644 129.155 25.3452 120.734 32.2052C113.902 37.7702 111.346 41.2575 110.671 45.9357C109.534 53.8216 116.446 54.0887 127.378 46.5812L131.096 44.0282L130.023 46.4955C129.434 47.8524 128.935 49.6677 128.916 50.5288C128.884 51.9444 129.131 52.0552 131.491 51.68C132.926 51.4519 136.164 50.4318 138.687 49.4145L143.274 47.5643L143.772 49.423C145.093 54.3643 153.676 52.5998 162.006 45.6739C164.73 43.409 164.772 44.2378 162.226 50.0316C158.258 59.0642 154.634 63.6025 149.363 66.1391C145.269 68.1086 142.191 68.1818 138.619 66.3936C137.13 65.6479 135.413 65.1949 134.805 65.3868C133.211 65.8892 133.445 68.6704 135.236 70.4836C138.638 73.9294 150.01 71.2307 157.777 65.1349C163.469 60.6671 169.772 50.8413 173.33 40.8857C174.536 37.513 174.526 37.424 172.938 37.424C171.947 37.424 171.472 37.1009 171.725 36.5998C173.789 32.5118 174.023 30.9194 172.844 28.979C171.696 27.0899 171.722 26.9672 173.344 26.6099C174.285 26.4028 176.626 26.2288 178.544 26.2241C181.362 26.2169 182.113 26.4681 182.452 27.5336C182.925 29.0198 184.299 29.2407 185.736 28.0611C187.658 26.4826 186.701 29.5196 181.834 40.4445C179.157 46.4513 177.079 51.6016 177.217 51.891C177.353 52.1798 179.113 52.0176 181.126 51.5303C184.637 50.6811 184.846 50.4872 186.214 46.8364C190.66 34.964 199.09 25.7956 205.035 26.3659C207.508 26.6026 207.897 26.4107 208.887 24.465C210.346 21.5974 210.283 21.1576 208.362 20.7449C205.598 20.1515 201.703 21.4801 198.267 24.188L194.977 26.7806L195.357 23.5307C195.802 19.7275 195.039 19.4684 190.737 21.9614ZM227.655 22.4902C218.403 25.1883 213.451 27.8106 206.957 33.4527C200.424 39.1298 196.595 48.0193 199.462 50.8558C201.982 53.3489 206.904 51.984 216.051 46.2555L218.59 44.6658L217.509 48.0852C216.915 49.9657 216.618 51.6589 216.848 51.8482C218.065 52.8477 231.695 48.1946 231.658 46.7922C231.651 46.5357 231.315 45.8974 230.912 45.3739C230.318 44.6038 229.786 44.5695 228.114 45.1946C226.978 45.6199 226.049 45.8012 226.049 45.5974C226.049 45.3944 227.133 43.1993 228.458 40.7208C229.783 38.2423 230.867 36.0354 230.867 35.8172C230.867 35.5996 229.973 35.6048 228.88 35.8303L226.893 36.2398L228.173 34.1332C229.017 32.7432 229.317 31.0381 229.054 29.1207L228.655 26.2149H234.596C240.113 26.2149 240.601 26.1002 241.429 24.6087C241.919 23.7252 242.104 22.5383 241.839 21.9713C241.11 20.4126 233.871 20.677 227.655 22.4902ZM135.669 30.2581C133.854 34.482 130.096 39.4469 126.307 42.6264C120.157 47.7878 117.63 48.4228 117.646 44.8029C117.665 40.3397 123.766 33.5391 131.603 29.2453C136.227 26.7114 137.1 26.9283 135.669 30.2581ZM169.032 28.6875C169.03 32.4465 160.216 43.3385 155.059 45.9555C151.767 47.6256 150.56 47.3151 150.571 44.8029C150.592 40.0786 158.094 31.4911 164.461 28.9031C168.559 27.2376 169.033 27.2152 169.032 28.6875ZM224.443 28.4343C224.443 28.9295 223.113 31.5254 221.487 34.2037C218.429 39.2412 209.697 47.3144 207.306 47.3144C205.235 47.3144 205.043 45.0053 206.791 41.1672C208.666 37.0528 215.218 31.0678 220.223 28.8992C223.851 27.3259 224.443 27.2607 224.443 28.4343ZM180.275 54.3036C166.861 55.2346 166.879 55.2313 165.895 57.0037C165.38 57.9334 165.064 58.782 165.195 58.8894C165.326 58.9963 171.392 58.6679 178.676 58.1589C206.685 56.2019 230.232 57.3004 263.792 62.1302C270.196 63.052 276.881 64.0938 278.648 64.4459C280.414 64.798 282.402 65.0835 283.064 65.0815C289.012 65.0597 259.123 58.8815 242.109 56.616C239.239 56.2335 234.36 55.5933 231.268 55.1937C225.751 54.481 187.375 53.8111 180.275 54.3036ZM150.161 57.0103C148.836 57.1567 136.55 58.5749 122.858 60.1607C80.1956 65.1026 54.1651 65.6584 16.4551 62.4315C11.8175 62.0352 6.21634 61.8091 4.00798 61.9304C0.682588 62.1124 2.26859 62.4612 13.2429 63.9625C29.7735 66.2248 50.4719 67.7486 64.6375 67.7466C76.9289 67.7453 102.649 66.2354 115.229 64.7769C119.867 64.2395 128.539 63.2228 134.502 62.5186C140.465 61.8137 147.547 61.0383 150.242 60.7957C154.521 60.4093 155.314 60.1126 156.511 58.4497L157.881 56.5454L155.226 56.6443C153.765 56.6984 151.486 56.8632 150.161 57.0103Z" fill="#00B1AD"/>
</svg>
