<svg width="20" height="23" viewBox="0 0 20 23" fill="none" xmlns="http://www.w3.org/2000/svg">
<path d="M19 9.36149C19 15.8292 10 21.3729 10 21.3729C10 21.3729 1 15.8292 1 9.36149C1 7.15606 1.94821 5.04096 3.63604 3.48148C5.32387 1.922 7.61305 1.0459 10 1.0459C12.3869 1.0459 14.6761 1.922 16.364 3.48148C18.0518 5.04096 19 7.15606 19 9.36149Z" stroke="#00B5B3" stroke-width="2" stroke-linecap="round" stroke-linejoin="round"/>
<path d="M10 12.1336C11.6569 12.1336 13 10.8926 13 9.36171C13 7.83085 11.6569 6.58984 10 6.58984C8.3431 6.58984 7 7.83085 7 9.36171C7 10.8926 8.3431 12.1336 10 12.1336Z" stroke="#00B5B3" stroke-width="2" stroke-linecap="round" stroke-linejoin="round"/>
</svg>
