<svg width="211" height="103" viewBox="0 0 211 103" fill="none" xmlns="http://www.w3.org/2000/svg">
<path fill-rule="evenodd" clip-rule="evenodd" d="M52.376 2.95727C49.2416 8.52621 47.9351 15.5308 47.8101 27.4336L47.7031 37.6453L44.9589 43.2916C41.5661 50.2725 34.7085 59.7286 30.956 62.6018C25.3763 66.8747 17.7075 67.2322 12.336 63.4714C9.01756 61.1482 5.43339 54.7473 4.49893 49.4736C2.28606 36.9869 5.00387 26.8281 11.3903 23.7172C17.1417 20.9158 23.9459 24.9416 32.0819 35.9616L36.5853 42.0616L40.2443 38.7177C45.1452 34.2392 45.5162 33.6166 44.5716 31.4528C43.8685 29.8418 43.7114 29.8295 42.0609 31.2604C39.3757 33.5865 38.5893 33.2007 34.3336 27.4629C28.3018 19.3321 25.2969 17.3013 18.7117 16.9042C13.5942 16.5957 12.9845 16.7617 9.70489 19.3519C4.02494 23.838 1.34034 29.4598 0.311865 39.0224C-1.40507 54.9926 4.07617 68.5339 14.0682 73.0067C23.2957 77.1363 33.0625 70.5326 43.1429 53.3466L48.5745 44.0858L49.1504 46.8561C50.4936 53.3117 51.1803 63.8657 50.5228 67.9472C49.9903 71.2514 50.0252 72.172 50.7266 73.3454C51.4776 74.6027 51.6459 74.5933 52.2409 73.2595C54.8625 67.3812 68.1149 40.4986 68.2664 40.7514C68.3699 40.9259 67.9263 45.6601 67.2801 51.2714C66.0051 62.3395 65.1933 75.2319 65.7709 75.2319C66.9941 75.2319 76.2718 68.2273 76.2718 67.3039C76.2718 65.1363 75.0457 63.9365 73.89 64.9731C71.5026 67.1143 71.2983 65.6984 72.3566 54.3247C74.4631 31.6736 76.5104 22.0609 80.5573 15.81C82.4662 12.8614 83.4463 12.0342 85.0292 12.0342C86.9894 12.0342 87.0445 12.1285 86.6859 14.8639C86.3499 17.4286 86.4489 17.6937 87.7454 17.6937C88.9776 17.6937 89.2929 17.0315 90.0247 12.9029C90.4913 10.2684 91.043 6.59727 91.2507 4.74378L91.6279 1.3745L89.3362 1.88951C86.0442 2.62996 82.1054 6.19733 79.1759 11.0909C76.5436 15.4893 69.8178 28.8598 61.621 45.9911C59.0146 51.4384 56.6216 56.2009 56.3036 56.5744C55.9506 56.9885 55.5447 55.7 55.2627 53.273C55.0083 51.0837 54.3007 45.7619 53.6899 41.4466L52.5792 33.6006L54.1808 29.1843C57.1761 20.9224 58.4691 14.7526 58.5052 8.54602C58.5423 2.19889 58.2192 1.18208 55.8521 0.202039C54.5376 -0.341273 53.9877 0.0945064 52.376 2.95727ZM54.4639 9.44022C54.7504 10.8476 53.4005 21.0375 52.6372 23.2277C51.8328 25.5349 51.9105 13.6377 52.7194 10.6636C53.4298 8.04893 54.0867 7.58862 54.4639 9.44022ZM185.415 9.56285C182.264 11.4493 180.143 14.4017 177.937 19.9716C175.073 27.2016 174.336 33.1639 175.577 39.063C179.15 56.0396 179.021 54.9567 177.941 58.9712C176.393 64.7222 172.526 67.5265 170.212 64.575C169.711 63.9346 168.635 61.7689 167.823 59.7635L166.345 56.116L165.499 59.5126C164.093 65.1504 164.595 70.1723 166.854 73.0794C168.237 74.8583 171.773 74.4952 174.327 72.3116C177.479 69.6176 181.857 61.7528 183.002 56.7272C184.252 51.245 183.786 42.752 181.799 34.7561C180.725 30.437 180.387 27.7704 180.614 25.4245C181.037 21.0535 182.982 17.6937 185.087 17.6937C186.692 17.6937 186.738 17.8153 186.414 21.2308C186.038 25.1915 186.658 27.6563 187.837 26.8979C188.268 26.6215 189.813 22.657 191.271 18.0898C193.237 11.9285 193.74 9.59209 193.219 9.03746C192.147 7.89707 187.697 8.19608 185.415 9.56285ZM202.537 9.81281C197.549 12.7737 192.656 24.5728 192.68 33.5799C192.687 36.2644 193.369 40.7863 194.434 45.2054C195.392 49.1822 196.176 53.5541 196.176 54.9199C196.176 60.52 193.099 65.7994 189.836 65.7994C188.26 65.7994 186.409 63.1187 185.135 58.991L184.216 56.0113L183.35 58.7778C181.966 63.2045 182.142 68.9885 183.748 71.8541C187.338 78.2569 195.304 72.1342 199.604 59.6683C201.888 53.0476 201.872 45.6421 199.553 35.937C197.63 27.8883 197.528 26.2376 198.714 22.391C199.699 19.2019 201.131 17.6937 203.175 17.6937C204.773 17.6937 204.889 18.27 204.045 21.992C203.444 24.6397 204.1 27.1356 205.392 27.1167C205.741 27.112 207.261 23.2428 208.769 18.5181C210.952 11.6804 211.354 9.76187 210.74 9.10914C209.566 7.86405 205.189 8.23947 202.537 9.81281ZM133.706 31.417C131.34 34.2156 131.089 34.2515 130.713 31.8424C129.842 26.265 116.374 32.7913 110.132 41.8144C106.108 47.6333 102.195 56.1631 101.472 60.6917C100.943 64.0025 100.604 64.7505 99.8191 64.3336C99.2758 64.0449 98.3189 64.2685 97.6923 64.8297C96.3863 66.0012 96.4173 65.7899 99.0045 56.0311L100.469 50.5065L99.0991 51.0828L97.73 51.6582L98.6273 47.2457C99.3175 43.85 99.3862 42.2181 98.924 40.1675L98.3239 37.5019H102.723C107.068 37.5019 107.13 37.4679 107.69 34.7759C108.45 31.1227 107.661 29.9531 104.446 29.9663C98.2468 29.9908 90.5369 36.2577 84.6341 46.0713C79.8447 54.0323 78.0534 59.0212 77.58 65.7135C76.7829 76.9948 81.628 77.3768 89.2917 66.637L91.8981 62.9847L91.146 66.5144C90.7328 68.4556 90.3833 71.0523 90.3697 72.2842C90.3472 74.3094 90.5206 74.4678 92.1745 73.9311C93.1804 73.6048 95.4507 72.1456 97.2195 70.6901L100.435 68.0434L100.783 70.7024C101.71 77.7711 107.727 75.247 113.566 65.3391C115.475 62.099 115.505 63.2847 113.72 71.573C110.939 84.4946 108.398 90.987 104.703 94.6157C101.833 97.4331 99.6755 97.5378 97.1716 94.9797C96.1274 93.9129 94.9244 93.2649 94.4977 93.5394C93.3803 94.2582 93.5447 98.2368 94.8 100.831C97.1846 105.76 105.157 101.899 110.601 93.1791C114.591 86.7876 119.009 72.7313 121.504 58.4892C122.349 53.6645 122.342 53.5371 121.229 53.5371C120.534 53.5371 120.201 53.0749 120.378 52.3581C121.826 46.5099 121.989 44.232 121.163 41.456C120.359 38.7536 120.377 38.5781 121.514 38.0669C122.174 37.7707 123.814 37.5217 125.159 37.5151C127.134 37.5047 127.66 37.8641 127.898 39.3884C128.23 41.5145 129.193 41.8305 130.2 40.143C131.548 37.8849 130.877 42.2295 127.465 57.8582C125.589 66.4512 124.132 73.8189 124.228 74.233C124.324 74.6461 125.557 74.4141 126.969 73.717C129.43 72.5021 129.577 72.2248 130.535 67.002C133.652 50.0179 139.561 36.902 143.729 37.7179C145.462 38.0565 145.735 37.782 146.429 34.9985C147.452 30.8963 147.408 30.2672 146.061 29.6767C144.124 28.8278 141.393 30.7284 138.984 34.6023L136.678 38.3112L136.945 33.6619C137.257 28.2213 136.722 27.8506 133.706 31.417ZM159.585 32.1735C153.1 36.0333 149.629 39.7846 145.076 47.8559C140.496 55.9773 137.812 68.6942 139.822 72.7521C141.589 76.3185 145.039 74.366 151.451 66.171L153.231 63.8968L152.473 68.7885C152.057 71.4787 151.848 73.9009 152.01 74.1717C152.863 75.6016 162.417 68.9451 162.391 66.9388C162.386 66.5719 162.151 65.6588 161.868 64.9099C161.452 63.8082 161.079 63.7591 159.907 64.6533C159.111 65.2617 158.459 65.5211 158.459 65.2297C158.459 64.9391 159.219 61.7991 160.148 58.2534C161.077 54.7077 161.837 51.5507 161.837 51.2384C161.837 50.9272 161.21 50.9347 160.444 51.2573L159.052 51.8431L159.948 48.8294C160.54 46.841 160.75 44.4018 160.566 41.6588L160.287 37.5019H164.451C168.318 37.5019 168.661 37.3378 169.241 35.2041C169.585 33.9402 169.714 32.2423 169.528 31.4311C169.018 29.2013 163.943 29.5795 159.585 32.1735ZM95.1034 43.2859C93.8312 49.3284 91.1967 56.431 88.5408 60.9794C84.2293 68.3631 82.4583 69.2715 82.4696 64.093C82.4831 57.7082 86.7597 47.9795 92.2533 41.8371C95.4946 38.2122 96.1065 38.5225 95.1034 43.2859ZM118.491 41.0391C118.49 46.4165 112.311 61.9981 108.696 65.7418C106.388 68.1311 105.542 67.6868 105.55 64.093C105.564 57.3347 110.823 45.0498 115.287 41.3475C118.159 38.9649 118.491 38.9328 118.491 41.0391ZM157.333 40.6769C157.333 41.3852 156.401 45.0988 155.262 48.9303C153.118 56.1367 146.997 67.6859 145.321 67.6859C143.869 67.6859 143.734 64.3826 144.96 58.892C146.274 53.0061 150.867 44.4442 154.375 41.3419C156.919 39.0913 157.333 38.9979 157.333 40.6769ZM126.372 77.6843C116.969 79.0162 116.982 79.0115 116.292 81.5469C115.931 82.8769 115.709 84.0909 115.801 84.2446C115.893 84.3974 120.145 83.9277 125.252 83.1995C144.885 80.3999 161.392 81.9714 184.917 88.8807C189.406 90.1994 194.093 91.6897 195.331 92.1934C196.57 92.6971 197.963 93.1055 198.427 93.1027C202.596 93.0715 181.644 84.2333 169.718 80.9923C167.705 80.4452 164.286 79.5293 162.118 78.9577C158.251 77.9381 131.349 76.9797 126.372 77.6843ZM105.263 81.5564C104.334 81.7658 95.7209 83.7947 86.123 86.0632C56.2169 93.1329 37.9695 93.928 11.535 89.3118C8.28406 88.7449 4.35763 88.4213 2.80958 88.5949C0.478492 88.8552 1.59028 89.3542 9.28326 91.502C20.8711 94.7383 35.3806 96.9181 45.3107 96.9153C53.9269 96.9134 71.9563 94.7534 80.7752 92.6669C84.0261 91.8981 90.1057 90.4437 94.2855 89.4363C98.4652 88.4279 103.43 87.3187 105.319 86.9716C108.319 86.4188 108.875 85.9944 109.714 83.6155L110.674 80.8914L108.813 81.0328C107.789 81.1102 106.191 81.346 105.263 81.5564Z" fill="white"/>
</svg>
