<svg width="89" height="44" viewBox="0 0 89 44" fill="none" xmlns="http://www.w3.org/2000/svg">
<path fill-rule="evenodd" clip-rule="evenodd" d="M21.996 1.24416C20.6797 3.58708 20.131 6.53399 20.0785 11.5417L20.0336 15.8378L18.8811 18.2133C17.4562 21.1503 14.5763 25.1285 13.0004 26.3373C10.6571 28.135 7.43649 28.2854 5.18068 26.7032C3.78704 25.7258 2.28182 23.0329 1.88938 20.8141C0.960059 15.5608 2.10144 11.2869 4.78351 9.97813C7.1989 8.79953 10.0564 10.4932 13.4732 15.1295L15.3645 17.6958L16.9011 16.289C18.9593 14.4048 19.1151 14.1429 18.7184 13.2326C18.4231 12.5548 18.3572 12.5496 17.664 13.1516C16.5364 14.1302 16.2061 13.9679 14.4188 11.554C11.8857 8.13324 10.6238 7.27885 7.85825 7.11178C5.70905 6.98202 5.45302 7.05186 4.0757 8.14157C1.69033 10.0289 0.562891 12.3941 0.130972 16.4172C-0.590077 23.136 1.71184 28.833 5.90811 30.7148C9.78333 32.4522 13.885 29.6739 18.1184 22.4436L20.3995 18.5474L20.6414 19.7129C21.2054 22.4289 21.4939 26.8691 21.2177 28.5862C20.9941 29.9763 21.0088 30.3636 21.3033 30.8573C21.6187 31.3863 21.6894 31.3823 21.9393 30.8212C23.0402 28.3481 28.6058 17.0382 28.6694 17.1446C28.7129 17.218 28.5266 19.2097 28.2552 21.5705C27.7197 26.227 27.3788 31.651 27.6214 31.651C28.1351 31.651 32.0313 28.704 32.0313 28.3155C32.0313 27.4036 31.5164 26.8988 31.0311 27.335C30.0285 28.2358 29.9427 27.6401 30.3871 22.8551C31.2718 13.3254 32.1316 9.28129 33.8311 6.65145C34.6328 5.41094 35.0444 5.06292 35.7092 5.06292C36.5323 5.06292 36.5555 5.1026 36.4049 6.25342C36.2638 7.33242 36.3054 7.44393 36.8498 7.44393C37.3673 7.44393 37.4997 7.16535 37.8071 5.4284C38.003 4.32004 38.2347 2.77555 38.3219 1.99577L38.4803 0.578268L37.5179 0.79494C36.1354 1.10646 34.4812 2.60729 33.251 4.66608C32.1455 6.51653 29.3209 12.1417 25.8785 19.349C24.784 21.6408 23.779 23.6444 23.6454 23.8015C23.4972 23.9757 23.3267 23.4337 23.2083 22.4126C23.1014 21.4915 22.8043 19.2526 22.5478 17.4371L22.0813 14.1362L22.7539 12.2782C24.0119 8.8023 24.5549 6.2066 24.57 3.59541C24.5856 0.925101 24.4499 0.497313 23.4558 0.0850003C22.9038 -0.143577 22.6728 0.03976 21.996 1.24416ZM22.8728 3.97161C22.9932 4.56369 22.4263 8.85072 22.1057 9.77217C21.7679 10.7428 21.8005 5.73754 22.1402 4.48631C22.4386 3.38628 22.7144 3.19263 22.8728 3.97161ZM77.8676 4.0232C76.5444 4.81688 75.6536 6.05897 74.7269 8.40229C73.5242 11.444 73.2148 13.9524 73.7361 16.4343C75.2363 23.5765 75.1824 23.121 74.7287 24.8099C74.0786 27.2294 72.4545 28.4092 71.4828 27.1675C71.2722 26.898 70.8204 25.9869 70.4793 25.1432L69.859 23.6087L69.5034 25.0377C68.9128 27.4096 69.1237 29.5223 70.0727 30.7454C70.6533 31.4938 72.1384 31.341 73.211 30.4223C74.5347 29.289 76.3732 25.9802 76.8541 23.8658C77.3789 21.5594 77.1834 17.9863 76.3489 14.6223C75.8978 12.8052 75.7557 11.6833 75.8512 10.6964C76.029 8.85746 76.8456 7.44393 77.7297 7.44393C78.404 7.44393 78.4231 7.49513 78.2872 8.93207C78.1293 10.5984 78.3893 11.6353 78.8848 11.3163C79.0657 11.2 79.7144 9.53209 80.3267 7.6106C81.1525 5.01847 81.3636 4.03551 81.1449 3.80217C80.6948 3.32239 78.8257 3.44819 77.8676 4.0232ZM85.0582 4.12837C82.9634 5.37403 80.9083 10.3381 80.9184 14.1275C80.9215 15.2568 81.208 17.1593 81.6551 19.0185C82.0574 20.6915 82.3865 22.5309 82.3865 23.1055C82.3865 25.4615 81.0945 27.6826 79.7241 27.6826C79.0621 27.6826 78.2848 26.5548 77.7498 24.8182L77.3638 23.5646L77.0004 24.7285C76.4191 26.5909 76.4928 29.0243 77.1676 30.2299C78.6749 32.9236 82.0206 30.3477 83.8265 25.1032C84.7856 22.3178 84.779 19.2022 83.805 15.1191C82.9972 11.7329 82.9544 11.0385 83.4527 9.42018C83.8662 8.07848 84.4676 7.44393 85.326 7.44393C85.997 7.44393 86.0459 7.6864 85.6913 9.25232C85.4388 10.3662 85.7145 11.4163 86.257 11.4083C86.4038 11.4063 87.0419 9.77852 87.6755 7.79077C88.5923 4.9141 88.7608 4.10694 88.5029 3.83232C88.01 3.3085 86.1717 3.46644 85.0582 4.12837ZM56.1517 13.2175C55.1581 14.3949 55.0524 14.41 54.8945 13.3965C54.529 11.05 48.8727 13.7957 46.2516 17.5918C44.5615 20.0399 42.918 23.6285 42.6144 25.5337C42.3924 26.9266 42.2499 27.2413 41.9203 27.0659C41.6922 26.9445 41.2903 27.0385 41.0272 27.2746C40.4787 27.7675 40.4917 27.6786 41.5783 23.5729L42.1932 21.2487L41.618 21.4911L41.043 21.7332L41.4199 19.8768C41.7097 18.4482 41.7385 17.7617 41.5444 16.899L41.2924 15.7775H43.14C44.9648 15.7775 44.9906 15.7632 45.2258 14.6306C45.545 13.0937 45.2138 12.6016 43.8636 12.6072C41.26 12.6175 38.0222 15.2541 35.5432 19.3828C33.5318 22.7321 32.7796 24.8309 32.5808 27.6465C32.246 32.3926 34.2808 32.5534 37.4992 28.035L38.5938 26.4984L38.278 27.9834C38.1045 28.8001 37.9576 29.8926 37.952 30.4108C37.9425 31.2628 38.0153 31.3295 38.7099 31.1037C39.1324 30.9664 40.0858 30.3525 40.8286 29.7402L42.179 28.6267L42.3253 29.7453C42.7144 32.7192 45.2412 31.6573 47.6935 27.4889C48.4954 26.1258 48.5076 26.6246 47.7582 30.1116C46.5901 35.5479 45.5232 38.2793 43.9714 39.8059C42.7662 40.9913 41.8601 41.0353 40.8085 39.9591C40.37 39.5103 39.8648 39.2377 39.6856 39.3531C39.2163 39.6555 39.2853 41.3294 39.8125 42.4207C40.8139 44.4946 44.162 42.8703 46.4483 39.2016C48.1242 36.5126 49.9795 30.5989 51.0271 24.6071C51.3821 22.5773 51.3791 22.5237 50.9117 22.5237C50.62 22.5237 50.48 22.3293 50.5545 22.0277C51.1623 19.5673 51.2311 18.6089 50.884 17.441C50.5462 16.3041 50.5538 16.2303 51.0313 16.0152C51.3084 15.8906 51.9973 15.7858 52.5621 15.7831C53.3916 15.7787 53.6127 15.9299 53.7124 16.5712C53.8519 17.4656 54.2564 17.5986 54.6793 16.8886C55.2453 15.9386 54.9635 17.7664 53.5306 24.3416C52.7427 27.9568 52.1309 31.0565 52.1713 31.2307C52.2115 31.4045 52.7294 31.3069 53.3221 31.0136C54.3557 30.5025 54.4174 30.3858 54.82 28.1886C56.129 21.0431 58.6106 15.5251 60.3607 15.8684C61.0889 16.0108 61.2033 15.8954 61.4948 14.7243C61.9243 12.9985 61.9059 12.7338 61.3404 12.4853C60.5267 12.1282 59.3799 12.9278 58.3683 14.5576L57.3997 16.118L57.5118 14.162C57.6427 11.873 57.4182 11.7171 56.1517 13.2175ZM67.0199 13.5358C64.2962 15.1596 62.8385 16.7378 60.9267 20.1336C59.0033 23.5503 57.8761 28.9005 58.7203 30.6077C59.4621 32.1081 60.9111 31.2867 63.6038 27.8389L64.3513 26.8822L64.0331 28.9402C63.8582 30.0719 63.7707 31.091 63.8386 31.2049C64.1967 31.8065 68.2093 29.006 68.1984 28.162C68.1963 28.0076 68.0975 27.6235 67.9788 27.3084C67.8041 26.8449 67.6473 26.8242 67.1551 27.2004C66.8206 27.4564 66.5471 27.5655 66.5471 27.4429C66.5471 27.3207 66.8662 25.9996 67.2563 24.5079C67.6464 23.0162 67.9656 21.688 67.9656 21.5566C67.9656 21.4257 67.7024 21.4288 67.3807 21.5646L66.7958 21.811L67.1724 20.5431C67.4211 19.7066 67.5093 18.6804 67.4317 17.5264L67.3145 15.7775H69.0634C70.6876 15.7775 70.8313 15.7084 71.075 14.8108C71.2193 14.279 71.2736 13.5647 71.1956 13.2235C70.9812 12.2853 68.85 12.4445 67.0199 13.5358ZM39.9399 18.2109C39.4057 20.753 38.2993 23.7412 37.1839 25.6548C35.3732 28.7612 34.6295 29.1433 34.6342 26.9647C34.6399 24.2785 36.4359 20.1856 38.743 17.6014C40.1042 16.0763 40.3612 16.2069 39.9399 18.2109ZM49.7618 17.2656C49.7613 19.528 47.1665 26.0833 45.6483 27.6584C44.6792 28.6636 44.3237 28.4767 44.327 26.9647C44.3331 24.1214 46.5417 18.953 48.4162 17.3954C49.6226 16.393 49.762 16.3795 49.7618 17.2656ZM66.0743 17.1132C66.0743 17.4113 65.6828 18.9736 65.2043 20.5856C64.304 23.6174 61.7333 28.4763 61.0293 28.4763C60.4198 28.4763 60.3631 27.0865 60.8778 24.7766C61.4298 22.3003 63.3586 18.6982 64.8319 17.393C65.9003 16.4462 66.0743 16.4069 66.0743 17.1132ZM53.0718 32.6827C49.1225 33.2431 49.128 33.2411 48.8384 34.3078C48.6866 34.8673 48.5937 35.378 48.6322 35.4427C48.6708 35.507 50.4566 35.3094 52.6011 35.003C60.8466 33.8252 67.7786 34.4863 77.6583 37.3932C79.5437 37.948 81.5118 38.575 82.0319 38.7869C82.552 38.9988 83.1371 39.1706 83.3322 39.1694C85.083 39.1563 76.2839 35.438 71.2753 34.0744C70.4301 33.8443 68.9939 33.4589 68.0838 33.2185C66.4596 32.7895 55.1619 32.3863 53.0718 32.6827ZM44.2064 34.3117C43.8163 34.3998 40.1993 35.2534 36.1685 36.2078C23.609 39.1821 15.9458 39.5166 4.84426 37.5745C3.479 37.336 1.83005 37.1999 1.17992 37.2729C0.200949 37.3825 0.667857 37.5924 3.89863 38.496C8.76511 39.8575 14.8586 40.7746 19.0288 40.7734C22.6473 40.7726 30.219 39.8639 33.9226 38.9861C35.2879 38.6627 37.8411 38.0507 39.5964 37.6269C41.3518 37.2027 43.4369 36.736 44.2303 36.59C45.4899 36.3574 45.7235 36.1789 46.0757 35.178L46.479 34.032L45.6974 34.0915C45.2674 34.124 44.5965 34.2232 44.2064 34.3117Z" fill="white"/>
</svg>
